<svg width="97" height="62" viewBox="0 0 97 62" fill="none" xmlns="http://www.w3.org/2000/svg">
<path d="M22.5393 30.3889C21.1641 30.3889 19.8111 30.0534 18.5968 29.4102C17.3843 28.767 16.3493 27.8344 15.5859 26.6973C14.8226 25.5602 14.3512 24.2535 14.2163 22.8933C14.0814 21.5332 14.2866 20.1601 14.8133 18.8958C15.3401 17.6333 16.1718 16.5183 17.2346 15.6521C18.2974 14.7859 19.5598 14.1924 20.909 13.927C22.2583 13.6616 23.6519 13.7317 24.9661 14.1297C26.2821 14.5278 27.4779 15.2429 28.4483 16.2105C28.5185 16.3045 28.5536 16.4206 28.5444 16.5367C28.5352 16.6547 28.4853 16.7634 28.4021 16.8464C28.3189 16.9293 28.208 16.9791 28.0897 16.9883C27.9714 16.9975 27.855 16.9625 27.7607 16.8924C26.7294 15.8659 25.4134 15.1674 23.9828 14.8835C22.5522 14.5997 21.068 14.7453 19.7206 15.3019C18.3732 15.8567 17.2198 16.7984 16.4084 18.0038C15.597 19.211 15.1645 20.6301 15.1645 22.0805C15.1645 23.531 15.597 24.9501 16.4084 26.1573C17.2198 27.3645 18.3713 28.3044 19.7206 28.8592C21.068 29.4139 22.5522 29.5595 23.9828 29.2775C25.4134 28.9937 26.7294 28.2952 27.7607 27.2686C27.8531 27.1802 27.977 27.1304 28.1045 27.1323C28.232 27.1341 28.3559 27.1839 28.4464 27.2742C28.537 27.3645 28.5888 27.4861 28.5906 27.6133C28.5906 27.7404 28.5426 27.8639 28.4538 27.9561C27.6775 28.7283 26.7552 29.342 25.7387 29.7586C24.724 30.1751 23.6353 30.3889 22.5356 30.3852L22.5393 30.3889Z" fill="black"/>
<path d="M46.7947 30.3889C46.1681 30.3889 44.6414 29.9797 43.8133 29.1614C43.0241 28.3745 42.5805 27.3092 42.5805 26.1978C42.5805 25.0865 43.0241 24.0212 43.8133 23.2343C43.8595 23.19 43.9131 23.1532 43.9723 23.1292C44.0314 23.1053 44.0961 23.0924 44.159 23.0924C44.2218 23.0924 44.2865 23.1053 44.3456 23.1292C44.4048 23.1532 44.4584 23.19 44.5046 23.2343C44.5508 23.2804 44.5859 23.3338 44.61 23.3928C44.634 23.4517 44.6469 23.5163 44.6469 23.5789C44.6469 23.6416 44.634 23.7061 44.61 23.7651C44.5859 23.824 44.549 23.8775 44.5046 23.9236C43.8984 24.5281 43.5583 25.3464 43.5583 26.1997C43.5583 27.053 43.8984 27.8713 44.5046 28.4758C45.1201 29.0877 46.4047 29.4158 46.7928 29.4158C47.1809 29.4158 48.4655 29.0859 49.081 28.4758C49.6873 27.8713 50.0273 27.053 50.0273 26.1997C50.0273 25.3464 49.6873 24.5281 49.081 23.9236C49.0348 23.8793 48.996 23.8259 48.972 23.7651C48.9461 23.7061 48.9331 23.6416 48.9313 23.5771C48.9313 23.5126 48.9424 23.4481 48.9683 23.3891C48.9941 23.3301 49.0293 23.2748 49.0755 23.2287C49.1217 23.1827 49.1753 23.1458 49.2363 23.1218C49.2954 23.0979 49.3601 23.085 49.4266 23.085C49.4913 23.085 49.556 23.0997 49.6152 23.1237C49.6743 23.1495 49.7298 23.1864 49.7741 23.2324C50.5634 24.0194 51.0069 25.0847 51.0069 26.196C51.0069 27.3073 50.5634 28.3726 49.7741 29.1596C48.9516 29.9779 47.4212 30.387 46.7947 30.387V30.3889Z" fill="black"/>
<path d="M56.7126 23.1826C57.3318 23.1826 57.938 23.3651 58.4537 23.7079C58.9694 24.0507 59.3705 24.5373 59.6071 25.1068C59.8436 25.6763 59.9065 26.3029 59.7863 26.9074C59.6662 27.5119 59.3668 28.0666 58.9287 28.5034C58.4907 28.9384 57.9325 29.237 57.3244 29.3568C56.7163 29.4766 56.086 29.4157 55.5149 29.1798C54.9419 28.9439 54.454 28.544 54.1083 28.0316C53.7646 27.5193 53.5797 26.9166 53.5797 26.301C53.5797 25.4754 53.9106 24.6829 54.4965 24.0986C55.0842 23.5144 55.8809 23.1863 56.7126 23.1863V23.1826ZM56.7126 22.2095C55.8994 22.2095 55.1046 22.4491 54.4281 22.8988C53.7516 23.3485 53.2249 23.9862 52.9143 24.7345C52.6038 25.4809 52.5225 26.3047 52.6796 27.0972C52.8386 27.8897 53.2304 28.6196 53.8052 29.1909C54.38 29.7622 55.1138 30.1529 55.9104 30.3096C56.7089 30.4681 57.5351 30.387 58.2855 30.0774C59.0378 29.7678 59.6791 29.2443 60.132 28.5716C60.583 27.8989 60.8251 27.1083 60.8251 26.2992C60.8251 25.2155 60.3926 24.1742 59.62 23.4075C58.8492 22.6408 57.8031 22.2095 56.7126 22.2095Z" fill="black"/>
<path d="M31.7512 29.5116C32.4037 30.0221 33.1966 30.3262 34.0247 30.3796C34.8527 30.4349 35.6789 30.2377 36.3942 29.8157L36.8969 30.2046C36.9468 30.2469 37.006 30.2783 37.067 30.2967C37.1298 30.3151 37.1964 30.3225 37.261 30.3151C37.3257 30.3078 37.3886 30.2893 37.4477 30.258C37.505 30.2267 37.5549 30.1843 37.5956 30.1327C37.6362 30.0811 37.6658 30.0221 37.6843 29.9594C37.7009 29.8968 37.7065 29.8304 37.6972 29.7659C37.688 29.7014 37.6677 29.6387 37.6344 29.5835C37.6011 29.5282 37.5568 29.4784 37.505 29.4397L37.1945 29.1964C37.3128 29.0803 37.4255 28.9568 37.529 28.8278C38.0336 28.1938 38.3368 27.4234 38.4014 26.618C38.4661 25.8126 38.2887 25.0054 37.8913 24.2977C37.4939 23.5918 36.8969 23.0186 36.1724 22.65C35.4478 22.2814 34.6309 22.1358 33.8232 22.2298C33.0155 22.3238 32.254 22.6537 31.6348 23.179C31.0156 23.7042 30.5665 24.399 30.3447 25.1768C30.1229 25.9545 30.1377 26.7821 30.389 27.5506C30.6386 28.321 31.1136 28.9992 31.7512 29.5005V29.5061V29.5116ZM36.2408 23.8646C36.7269 24.2461 37.0892 24.764 37.2795 25.35C37.4699 25.9361 37.4828 26.5664 37.3146 27.158C37.1464 27.7515 36.8045 28.2804 36.3332 28.6804C35.8619 29.0803 35.2815 29.3328 34.666 29.4028C34.0505 29.4747 33.4276 29.3641 32.875 29.084C32.3224 28.8039 31.8677 28.3671 31.5646 27.8289C31.2614 27.2907 31.1265 26.6752 31.1764 26.0614C31.2263 25.4477 31.4574 24.8616 31.8418 24.3769C32.0969 24.0562 32.4129 23.7872 32.7715 23.5863C33.1301 23.3872 33.5256 23.2582 33.9341 23.2103C34.3426 23.1624 34.7566 23.1937 35.1521 23.3061C35.5477 23.4167 35.9192 23.6047 36.2408 23.8572V23.8627V23.8646Z" fill="black"/>
<path d="M40.4974 13.9731C40.368 13.9731 40.2423 14.0247 40.1517 14.115C40.0593 14.2053 40.0076 14.3306 40.0076 14.4596V29.9023C40.0076 30.0313 40.0593 30.1548 40.1517 30.2469C40.2442 30.3373 40.368 30.3888 40.4974 30.3888C40.6268 30.3888 40.7524 30.3373 40.843 30.2469C40.9354 30.1548 40.9872 30.0313 40.9872 29.9023V14.4578C40.9872 14.3288 40.9354 14.2053 40.843 14.115C40.7506 14.0247 40.6268 13.9731 40.4974 13.9731Z" fill="black"/>
<path d="M26.5667 46.7309C25.4485 46.7309 24.3783 46.2886 23.5872 45.5016C22.7962 44.7165 22.3526 43.6512 22.3507 42.5399V39.0492C22.3507 38.9202 22.4025 38.7967 22.4949 38.7046C22.5873 38.6124 22.7111 38.5627 22.8405 38.5627C22.9699 38.5627 23.0956 38.6142 23.1861 38.7046C23.2786 38.7949 23.3303 38.9202 23.3303 39.0492V42.5399C23.3506 43.3803 23.7018 44.1783 24.3062 44.7644C24.9106 45.3505 25.722 45.6785 26.5667 45.6785C27.4114 45.6785 28.2228 45.3505 28.8272 44.7644C29.4316 44.1783 29.7809 43.3785 29.8031 42.5399V39.0492C29.8031 38.9202 29.8548 38.7967 29.9454 38.7046C30.0378 38.6124 30.1617 38.5627 30.291 38.5627C30.4204 38.5627 30.5461 38.6142 30.6367 38.7046C30.7291 38.7949 30.7808 38.9202 30.7808 39.0492V42.5399C30.7808 43.6512 30.3354 44.7165 29.5443 45.5016C28.7551 46.2867 27.6831 46.7291 26.5667 46.7309Z" fill="black"/>
<path d="M57.0527 38.5313C58.169 38.5313 59.2411 38.9737 60.0303 39.7588C60.8195 40.5439 61.265 41.6092 61.2668 42.7205V46.2094C61.2668 46.3384 61.215 46.4619 61.1226 46.554C61.0302 46.6443 60.9064 46.6959 60.777 46.6959C60.6476 46.6959 60.5219 46.6443 60.4314 46.554C60.3389 46.4619 60.2872 46.3384 60.2872 46.2094V42.7205C60.2465 41.8949 59.888 41.1171 59.2873 40.5494C58.6866 39.98 57.8862 39.663 57.0563 39.663C56.2265 39.663 55.428 39.98 54.8254 40.5494C54.2247 41.1189 53.8662 41.8967 53.8255 42.7205V46.2094C53.8255 46.3384 53.7738 46.4619 53.6832 46.554C53.5908 46.6443 53.4669 46.6959 53.3376 46.6959C53.2082 46.6959 53.0825 46.6443 52.9919 46.554C52.8995 46.4619 52.8496 46.3384 52.8496 46.2094V42.7205C52.8496 41.611 53.295 40.5476 54.0824 39.7625C54.8717 38.9774 55.94 38.535 57.0545 38.5313H57.0527Z" fill="black"/>
<path d="M40.636 36.3068C40.1961 36.3068 39.8394 36.6625 39.8394 37.1011C39.8394 37.5398 40.1961 37.8955 40.636 37.8955C41.0759 37.8955 41.4326 37.5398 41.4326 37.1011C41.4326 36.6625 41.0759 36.3068 40.636 36.3068Z" fill="black"/>
<path d="M36.9153 52.6525C35.7971 52.6525 34.7269 52.2084 33.9359 51.4232C33.1448 50.6381 32.7012 49.9212 32.6993 48.8098C32.6993 48.6808 32.7511 48.5574 32.8435 48.4652C32.9359 48.3749 33.0598 48.3233 33.1891 48.3233C33.3185 48.3233 33.4442 48.3749 33.5348 48.4652C33.6272 48.5574 33.6789 48.6808 33.6789 48.8098C33.7141 49.278 33.7972 49.5636 33.8656 49.7516C34.0153 50.1645 34.2501 50.5423 34.5532 50.8611C34.8563 51.18 35.2204 51.4361 35.6271 51.6094C36.0318 51.7826 36.4699 51.8729 36.9098 51.8729C37.3497 51.8729 37.7877 51.7826 38.1925 51.6094C38.5973 51.4343 38.9633 51.18 39.2664 50.8611C39.5695 50.5423 39.8024 50.1645 39.9521 49.7516C40.1018 49.3388 40.1665 48.9002 40.1406 48.4615V39.0529C40.1406 38.9239 40.1924 38.8004 40.2848 38.7083C40.3772 38.6161 40.5011 38.5663 40.6304 38.5663C40.7598 38.5663 40.8855 38.618 40.9761 38.7083C41.0685 38.7986 41.1202 38.9239 41.1202 39.0529V48.4615C41.1202 49.571 40.6766 50.6344 39.8874 51.4214C39.1 52.2065 38.0299 52.6507 36.9153 52.6544V52.6525Z" fill="black"/>
<path d="M66.9744 39.4916C67.5936 39.4916 68.1998 39.674 68.7155 40.0168C69.2312 40.3596 69.6323 40.8462 69.8689 41.4157C70.1054 41.9852 70.1683 42.6118 70.0482 43.2163C69.928 43.8208 69.6286 44.3755 69.1905 44.8123C68.7525 45.2491 68.1943 45.5459 67.5862 45.6657C66.9781 45.7855 66.3478 45.7246 65.7767 45.4887C65.2037 45.2528 64.7139 44.8529 64.3701 44.3405C64.0264 43.8282 63.8415 43.2255 63.8415 42.6099C63.8415 41.7843 64.1724 40.9918 64.7583 40.4057C65.3461 39.8215 66.1427 39.4934 66.9744 39.4934V39.4916ZM66.9744 38.5184C66.1612 38.5184 65.3664 38.758 64.6899 39.2077C64.0134 39.6574 63.4867 40.2951 63.1761 41.0434C62.8656 41.7898 62.7824 42.6136 62.9414 43.4061C63.1004 44.1986 63.4922 44.9285 64.067 45.4998C64.6418 46.0711 65.3756 46.4618 66.1722 46.6185C66.9707 46.777 67.7969 46.6959 68.5473 46.3863C69.2996 46.0767 69.9409 45.5532 70.3919 44.8805C70.8448 44.2078 71.0851 43.4172 71.0851 42.6081C71.0851 41.5226 70.6525 40.4831 69.88 39.7164C69.1092 38.9497 68.0631 38.5184 66.9726 38.5184H66.9744Z" fill="black"/>
<path d="M17.107 47.7132L16.8834 47.4921L16.8279 47.4349C17.8963 46.7641 18.8001 45.8628 19.471 44.7976C20.1419 43.7323 20.5634 42.5307 20.702 41.2811C20.8425 40.0315 20.6964 38.7672 20.2787 37.5803C19.861 36.3934 19.179 35.3171 18.2844 34.4288C17.192 33.3451 15.8243 32.5802 14.3253 32.219C12.8263 31.8559 11.2571 31.9112 9.78772 32.3738C8.31832 32.8382 7.00417 33.6952 5.9913 34.8508C4.97843 36.0064 4.30195 37.4163 4.03949 38.9276C3.77703 40.4388 3.93598 41.9925 4.49971 43.419C5.06345 44.8455 6.01163 46.0914 7.23891 47.0203C8.46618 47.9491 9.92635 48.5242 11.4604 48.6845C12.9945 48.8449 14.5416 48.5832 15.9352 47.927L16.1903 48.1795L16.4139 48.4007L17.8408 49.8217C17.9332 49.9138 18.0571 49.9636 18.1883 49.9636C18.3195 49.9636 18.4434 49.912 18.5358 49.8217C18.6282 49.7295 18.6799 49.606 18.6799 49.477C18.6799 49.348 18.6282 49.2245 18.5358 49.1324L17.1089 47.7132H17.107ZM12.3273 47.7556C10.5344 47.752 8.80627 47.1014 7.45886 45.9255C6.11329 44.7497 5.24089 43.1278 5.0043 41.3604C4.76772 39.5929 5.18544 37.8015 6.17613 36.3179C7.16682 34.8324 8.66765 33.7561 10.3958 33.2879C12.124 32.8198 13.9649 32.9894 15.5785 33.7671C17.1902 34.5449 18.4637 35.8792 19.1623 37.5195C19.861 39.1598 19.9386 40.9973 19.3786 42.691C18.8186 44.3847 17.6615 45.8168 16.1182 46.7254L15.4565 46.0674C15.3641 45.9753 15.2402 45.9237 15.109 45.9237C14.9778 45.9237 14.8539 45.9753 14.7615 46.0674C14.6691 46.1577 14.6174 46.2831 14.6174 46.4121C14.6174 46.5411 14.6691 46.6646 14.7615 46.7567L15.1922 47.1824C14.2847 47.5584 13.3087 47.7538 12.3254 47.7538L12.3273 47.7556Z" fill="black"/>
<path d="M44.5914 45.8555C45.2438 46.3678 46.0368 46.6701 46.8648 46.7235C47.6928 46.7788 48.519 46.5816 49.2343 46.1614L49.7352 46.5503C49.8369 46.6295 49.9663 46.6664 50.0956 46.6517C50.225 46.6369 50.3433 46.5706 50.4228 46.4692C50.5023 46.3678 50.5392 46.2388 50.5245 46.1098C50.5097 45.9808 50.4431 45.8647 50.3415 45.7836L50.0328 45.5403C50.1511 45.4242 50.262 45.3026 50.3655 45.1736C50.8701 44.5396 51.1732 43.7692 51.2379 42.9638C51.3026 42.1565 51.1252 41.3493 50.7296 40.6434C50.3322 39.9375 49.7352 39.3644 49.0107 38.9958C48.2862 38.6272 47.4692 38.4815 46.6615 38.5755C45.8538 38.6695 45.0923 38.9994 44.4731 39.5247C43.8539 40.05 43.4048 40.7448 43.1848 41.5225C42.963 42.3003 42.9778 43.1278 43.2292 43.8963C43.4806 44.6667 43.9556 45.345 44.5932 45.8463V45.8518L44.5914 45.8555ZM49.0809 40.2066C49.567 40.5881 49.9275 41.106 50.1197 41.6921C50.3101 42.2782 50.3211 42.9085 50.1529 43.5001C49.9847 44.0935 49.6428 44.6225 49.1715 45.0224C48.7002 45.4224 48.1198 45.6749 47.5043 45.7449C46.8888 45.8168 46.2659 45.7062 45.7152 45.4261C45.1625 45.1459 44.7078 44.7091 44.4047 44.171C44.1016 43.6328 43.9667 43.0191 44.0166 42.4035C44.0665 41.7898 44.2957 41.2037 44.6801 40.719C44.9352 40.3964 45.2494 40.1274 45.6098 39.9283C45.9684 39.7274 46.3639 39.6003 46.7724 39.5505C47.1809 39.5026 47.5949 39.5339 47.9923 39.6445C48.3897 39.7551 48.7593 39.9431 49.0828 40.1956V40.2029L49.0809 40.2066Z" fill="black"/>
<path d="M33.1763 36.3068C32.7364 36.3068 32.3796 36.6625 32.3796 37.1011C32.3796 37.5398 32.7364 37.8955 33.1763 37.8955C33.6162 37.8955 33.9729 37.5398 33.9729 37.1011C33.9729 36.6625 33.6162 36.3068 33.1763 36.3068Z" fill="black"/>
<path d="M33.1763 38.5627C33.0469 38.5627 32.9212 38.6142 32.8306 38.7046C32.7382 38.7949 32.6865 38.9202 32.6865 39.0492V46.2444C32.6865 46.3734 32.7382 46.4968 32.8306 46.589C32.923 46.6811 33.0469 46.7309 33.1763 46.7309C33.3056 46.7309 33.4313 46.6793 33.5219 46.589C33.6143 46.4987 33.6661 46.3734 33.6661 46.2444V39.0492C33.6661 38.9202 33.6143 38.7967 33.5219 38.7046C33.4295 38.6124 33.3056 38.5627 33.1763 38.5627Z" fill="black"/>
<path d="M81.9198 23.66C81.3117 24.2092 80.4855 24.517 79.626 24.517C78.7666 24.517 77.9404 24.2092 77.3323 23.66C77.2399 23.5789 77.116 23.5347 76.9867 23.5365C76.8573 23.5365 76.7353 23.5844 76.6447 23.6674C76.5542 23.7503 76.5024 23.8609 76.5005 23.977C76.5005 24.0931 76.5486 24.2055 76.6392 24.2885C77.4321 25.0017 78.5078 25.4035 79.6279 25.4035C80.748 25.4035 81.8218 25.0036 82.6166 24.2885C82.709 24.2055 82.7608 24.0931 82.7608 23.9752C82.7608 23.8572 82.709 23.7448 82.6166 23.6618C82.5704 23.6213 82.5168 23.5881 82.4576 23.566C82.3985 23.5439 82.3338 23.5328 82.2691 23.5328C82.1379 23.5328 82.0141 23.5789 81.9216 23.6637L81.9198 23.66Z" fill="black"/>
<path d="M88.8453 17.3845H88.0709C87.7733 16.6197 87.2521 15.9635 86.5719 15.5009C85.8936 15.0383 85.0896 14.7914 84.2671 14.7932C83.4446 14.7932 82.6424 15.0457 81.9659 15.5102C81.2894 15.9764 80.7701 16.6344 80.4743 17.4011L78.9513 17.39C78.6538 16.627 78.1325 15.9709 77.456 15.5083C76.7796 15.0457 75.9774 14.7988 75.1568 14.7988C74.3361 14.7988 73.5339 15.0457 72.8575 15.5083C72.181 15.9709 71.6598 16.627 71.3622 17.39H70.7282C70.5988 17.39 70.4768 17.4416 70.3863 17.532C70.2957 17.6223 70.244 17.7457 70.244 17.8729C70.244 18.0001 70.2957 18.1236 70.3863 18.2139C70.4768 18.3042 70.6007 18.3558 70.7282 18.3558H71.1164C71.096 18.518 71.0849 18.682 71.0831 18.846C71.0831 19.9223 71.5119 20.9544 72.2752 21.7156C73.0386 22.4768 74.0737 22.9044 75.1531 22.9044C76.2325 22.9044 77.2675 22.4768 78.0309 21.7156C78.7942 20.9544 79.223 19.9223 79.223 18.846C79.223 18.6838 79.2101 18.5217 79.1898 18.3613H80.2322C80.2119 18.5198 80.2008 18.6783 80.2008 18.8387C80.2008 19.915 80.6296 20.9471 81.393 21.7082C82.1563 22.4694 83.1914 22.897 84.2708 22.897C85.3502 22.897 86.3852 22.4694 87.1486 21.7082C87.9119 20.9471 88.3407 19.915 88.3407 18.8387C88.3407 18.6746 88.3278 18.5106 88.3075 18.3484H88.8435C88.9729 18.3484 89.0948 18.2968 89.1854 18.2065C89.276 18.1162 89.3277 17.9927 89.3277 17.8655C89.3277 17.7384 89.276 17.6149 89.1854 17.5246C89.0948 17.4343 88.971 17.3827 88.8435 17.3827V17.3864L88.8453 17.3845ZM75.1512 21.9349C74.5376 21.9349 73.9387 21.7543 73.4286 21.4133C72.9185 21.0742 72.5211 20.5914 72.2863 20.0256C72.0516 19.4597 71.9906 18.8386 72.1107 18.2378C72.2309 17.637 72.5266 17.0859 72.9591 16.6547C73.3935 16.2216 73.9461 15.9285 74.5468 15.8087C75.1475 15.6889 75.7722 15.7498 76.3378 15.9838C76.9053 16.2179 77.3895 16.6141 77.7296 17.1228C78.0697 17.6315 78.2527 18.2286 78.2527 18.8405C78.2527 19.6606 77.9255 20.4476 77.3452 21.0282C76.7629 21.6087 75.9756 21.9331 75.1531 21.9331L75.1512 21.9349ZM84.2708 21.9349C83.6571 21.9349 83.0583 21.7543 82.5481 21.4133C82.038 21.0742 81.6406 20.5914 81.4059 20.0256C81.1712 19.4597 81.1102 18.8386 81.2303 18.2378C81.3504 17.637 81.6462 17.0859 82.0787 16.6547C82.513 16.2216 83.0657 15.9285 83.6664 15.8087C84.2671 15.6889 84.8918 15.7498 85.4574 15.9838C86.0248 16.2179 86.5091 16.6141 86.8491 17.1228C87.1892 17.6315 87.3722 18.2286 87.3722 18.8405C87.3722 19.6606 87.0451 20.4476 86.4647 21.0282C85.8825 21.6087 85.0951 21.9331 84.2726 21.9331L84.2708 21.9349Z" fill="black"/>
<path d="M77.7519 10.4621C80.5909 10.4621 83.3671 11.3025 85.7273 12.8746C88.0876 14.4467 89.9286 16.6823 91.0154 19.2994C92.1022 21.9146 92.3868 24.7934 91.8323 27.5709C91.2778 30.3483 89.9119 32.899 87.9028 34.9006C85.8955 36.9021 83.3375 38.2659 80.5521 38.8188C77.7667 39.3717 74.8815 39.0879 72.2569 38.0042C69.6341 36.9205 67.3921 35.0867 65.8137 32.7313C64.2371 30.3778 63.3942 27.6096 63.3942 24.7787C63.3942 22.8988 63.7658 21.0374 64.4866 19.3012C65.2074 17.5651 66.2647 15.9857 67.5991 14.6568C68.9318 13.328 70.5158 12.2738 72.2569 11.5532C73.998 10.8344 75.8648 10.464 77.7501 10.464L77.7519 10.4621ZM77.7519 9.48901C74.7188 9.48901 71.756 10.3866 69.233 12.0656C66.712 13.7445 64.7472 16.1331 63.5865 18.9271C62.4257 21.7211 62.1226 24.7953 62.7141 27.7607C63.3055 30.7261 64.7657 33.4501 66.9097 35.588C69.0538 37.7259 71.7856 39.1819 74.7595 39.7717C77.7334 40.3614 80.8164 40.0592 83.6184 38.9018C86.4205 37.7443 88.814 35.7852 90.4997 33.2713C92.1835 30.7575 93.0836 27.8013 93.0836 24.7769C93.0799 20.7241 91.4627 16.8371 88.5885 13.9712C85.7144 11.1053 81.8163 9.4927 77.7519 9.48901Z" fill="black"/>
<path d="M79.7369 27.3884C79.297 27.3884 78.9403 27.7441 78.9403 28.1828C78.9403 28.6214 79.297 28.9771 79.7369 28.9771C80.1768 28.9771 80.5335 28.6214 80.5335 28.1828C80.5335 27.7441 80.1768 27.3884 79.7369 27.3884Z" fill="black"/>
</svg>
