<svg width="466" height="138" viewBox="0 0 466 138" fill="none" xmlns="http://www.w3.org/2000/svg">
<path d="M163.76 116.96C163.76 119.68 162.933 121.76 161.28 123.2C159.627 124.613 157.52 125.32 154.96 125.32H149.88V132.44H154.36V135H143.68V132.44H146.96V111.56H143.68V109H154.72C157.947 109 160.253 109.787 161.64 111.36C163.053 112.933 163.76 114.8 163.76 116.96ZM160.64 117.04C160.64 115.36 160.147 114.027 159.16 113.04C158.173 112.053 156.613 111.56 154.48 111.56H149.88V122.76H154.6C158.627 122.76 160.64 120.853 160.64 117.04ZM183.11 126.08C183.11 128.773 182.31 131 180.71 132.76C179.11 134.52 176.937 135.4 174.19 135.4C171.497 135.4 169.377 134.547 167.83 132.84C166.31 131.133 165.55 128.933 165.55 126.24C165.55 123.653 166.297 121.44 167.79 119.6C169.284 117.733 171.47 116.8 174.35 116.8C177.257 116.8 179.444 117.72 180.91 119.56C182.377 121.373 183.11 123.547 183.11 126.08ZM180.15 126.04C180.15 124.013 179.63 122.373 178.59 121.12C177.577 119.84 176.137 119.2 174.27 119.2C172.404 119.2 170.964 119.853 169.95 121.16C168.964 122.467 168.47 124.107 168.47 126.08C168.47 128.027 168.964 129.667 169.95 131C170.937 132.333 172.377 133 174.27 133C176.164 133 177.617 132.347 178.63 131.04C179.644 129.707 180.15 128.04 180.15 126.04ZM195.938 116.88C197.218 116.88 198.231 117.187 198.978 117.8L199.658 122.28L197.378 122.56L196.698 119.52C196.245 119.36 195.791 119.28 195.338 119.28C194.298 119.28 193.431 119.72 192.738 120.6C192.045 121.453 191.698 122.573 191.698 123.96V132.72H195.818V135H185.778V132.72H188.898V119.48H185.698V117.2H191.538V120.4C191.885 119.413 192.445 118.587 193.218 117.92C194.018 117.227 194.925 116.88 195.938 116.88ZM216.015 130.2C215.535 133.667 213.655 135.4 210.375 135.4C208.588 135.4 207.215 134.893 206.255 133.88C205.322 132.867 204.855 131.493 204.855 129.76V119.44H201.975V117.2H204.855V111.48H207.655V117.2H214.615V119.44H207.655V129.4C207.655 130.467 207.882 131.333 208.335 132C208.815 132.64 209.588 132.96 210.655 132.96C211.348 132.96 211.988 132.747 212.575 132.32C213.188 131.893 213.628 130.96 213.895 129.52L216.015 130.2ZM219.459 118.56C220.392 117.947 221.379 117.507 222.419 117.24C223.459 116.973 224.565 116.84 225.739 116.84C229.979 116.84 232.099 118.827 232.099 122.8V131.28C232.099 132.56 232.605 133.2 233.619 133.2C234.072 133.2 234.472 133.12 234.819 132.96L234.859 134.8C234.139 135.2 233.365 135.4 232.539 135.4C230.432 135.4 229.352 134.2 229.299 131.8V131.72C228.739 132.68 227.939 133.533 226.899 134.28C225.885 135.027 224.659 135.4 223.219 135.4C222.045 135.4 220.845 135.04 219.619 134.32C218.419 133.6 217.819 132.293 217.819 130.4C217.819 128.16 218.699 126.693 220.459 126C222.245 125.28 224.139 124.92 226.139 124.92C226.672 124.92 227.205 124.933 227.739 124.96C228.299 124.987 228.819 125.027 229.299 125.08V123.48C229.299 122.2 229.019 121.16 228.459 120.36C227.925 119.56 226.859 119.16 225.259 119.16C223.952 119.16 222.805 119.4 221.819 119.88L221.139 122.96L218.819 122.68L219.459 118.56ZM229.299 128.32V126.96C228.792 126.933 228.259 126.893 227.699 126.84C227.139 126.787 226.565 126.76 225.979 126.76C224.645 126.76 223.432 126.973 222.339 127.4C221.272 127.8 220.739 128.693 220.739 130.08C220.739 131.227 221.099 132.013 221.819 132.44C222.539 132.867 223.285 133.08 224.059 133.08C225.285 133.08 226.432 132.653 227.499 131.8C228.592 130.947 229.192 129.787 229.299 128.32ZM245.955 107.08C246.781 107.08 247.515 107.16 248.155 107.32C248.821 107.48 249.461 107.827 250.075 108.36L250.755 112.48L248.475 112.76L247.715 109.72C247.181 109.507 246.501 109.4 245.675 109.4C243.568 109.4 242.515 110.813 242.515 113.64V117.2H247.115V119.44H242.515V132.72H246.555V135H236.595V132.72H239.675V119.44H237.115V117.2H239.675V113.88C239.675 111.8 240.288 110.147 241.515 108.92C242.768 107.693 244.248 107.08 245.955 107.08ZM267.095 126.08C267.095 128.773 266.295 131 264.695 132.76C263.095 134.52 260.921 135.4 258.175 135.4C255.481 135.4 253.361 134.547 251.815 132.84C250.295 131.133 249.535 128.933 249.535 126.24C249.535 123.653 250.281 121.44 251.775 119.6C253.268 117.733 255.455 116.8 258.335 116.8C261.241 116.8 263.428 117.72 264.895 119.56C266.361 121.373 267.095 123.547 267.095 126.08ZM264.135 126.04C264.135 124.013 263.615 122.373 262.575 121.12C261.561 119.84 260.121 119.2 258.255 119.2C256.388 119.2 254.948 119.853 253.935 121.16C252.948 122.467 252.455 124.107 252.455 126.08C252.455 128.027 252.948 129.667 253.935 131C254.921 132.333 256.361 133 258.255 133C260.148 133 261.601 132.347 262.615 131.04C263.628 129.707 264.135 128.04 264.135 126.04ZM278.403 135H269.363V132.72H272.483V109.76H269.323V107.48H275.283V132.72H278.403V135ZM283.388 112.6V108.96H286.428V112.6H283.388ZM289.588 135H280.548V132.72H283.668V119.48H280.468V117.2H286.468V132.72H289.588V135ZM309.438 126.08C309.438 128.773 308.638 131 307.038 132.76C305.438 134.52 303.265 135.4 300.518 135.4C297.825 135.4 295.705 134.547 294.158 132.84C292.638 131.133 291.878 128.933 291.878 126.24C291.878 123.653 292.625 121.44 294.118 119.6C295.612 117.733 297.798 116.8 300.678 116.8C303.585 116.8 305.772 117.72 307.238 119.56C308.705 121.373 309.438 123.547 309.438 126.08ZM306.478 126.04C306.478 124.013 305.958 122.373 304.918 121.12C303.905 119.84 302.465 119.2 300.598 119.2C298.732 119.2 297.292 119.853 296.278 121.16C295.292 122.467 294.798 124.107 294.798 126.08C294.798 128.027 295.292 129.667 296.278 131C297.265 132.333 298.705 133 300.598 133C302.492 133 303.945 132.347 304.958 131.04C305.972 129.707 306.478 128.04 306.478 126.04Z" fill="#3C3D37"/>
<path d="M26.3697 64.8867C22.0338 64.8867 17.7678 63.8261 13.939 61.7922C10.1101 59.7583 6.85234 56.8094 4.44545 53.2136C2.03856 49.6178 0.552478 45.4859 0.127048 41.185C-0.298383 36.8841 0.348502 32.5424 2.00943 28.5445C3.67036 24.5524 6.29288 21.0266 9.64387 18.2875C12.9949 15.5484 16.9753 13.6719 21.2296 12.8327C25.4839 11.9935 29.878 12.2149 34.0216 13.4738C38.171 14.7326 41.9416 16.9937 45.0012 20.0533C45.2227 20.3506 45.3334 20.7177 45.3043 21.0849C45.2751 21.4579 45.1178 21.8017 44.8555 22.0639C44.5933 22.3262 44.2436 22.4835 43.8706 22.5127C43.4976 22.5418 43.1305 22.4311 42.8333 22.2096C39.5814 18.9636 35.4319 16.7548 30.9212 15.8573C26.4105 14.9598 21.7308 15.4202 17.4823 17.1802C13.2338 18.9344 9.59725 21.9124 7.03884 25.7238C4.48043 29.541 3.11671 34.0284 3.11671 38.6149C3.11671 43.2014 4.48043 47.6888 7.03884 51.5061C9.59725 55.3233 13.228 58.2955 17.4823 60.0497C21.7308 61.8038 26.4105 62.2642 30.9212 61.3725C35.4319 60.4751 39.5814 58.2663 42.8333 55.0202C43.1247 54.7405 43.5151 54.5831 43.9172 54.589C44.3194 54.5948 44.7098 54.7521 44.9954 55.0377C45.2809 55.3233 45.4441 55.7079 45.45 56.11C45.45 56.5122 45.2984 56.9026 45.0187 57.194C42.571 59.6359 39.6629 61.5765 36.4576 62.8936C33.2582 64.2107 29.8256 64.8867 26.358 64.8751L26.3697 64.8867Z" fill="black"/>
<path d="M102.842 64.8868C100.867 64.8868 96.0529 63.593 93.4421 61.0054C90.9536 58.5169 89.5549 55.1485 89.5549 51.6343C89.5549 48.1202 90.9536 44.7517 93.4421 42.2632C93.5878 42.1233 93.7568 42.0068 93.9433 41.931C94.1298 41.8552 94.3337 41.8144 94.5319 41.8144C94.73 41.8144 94.934 41.8552 95.1205 41.931C95.307 42.0068 95.476 42.1233 95.6217 42.2632C95.7674 42.4089 95.8781 42.5779 95.9539 42.7644C96.0296 42.9509 96.0704 43.1548 96.0704 43.353C96.0704 43.5511 96.0296 43.7551 95.9539 43.9416C95.8781 44.1281 95.7616 44.2971 95.6217 44.4428C93.7102 46.3543 92.6379 48.9418 92.6379 51.6401C92.6379 54.3384 93.7102 56.926 95.6217 58.8375C97.5623 60.7723 101.613 61.8097 102.837 61.8097C104.06 61.8097 108.111 60.7665 110.051 58.8375C111.963 56.926 113.035 54.3384 113.035 51.6401C113.035 48.9418 111.963 46.3543 110.051 44.4428C109.906 44.3029 109.783 44.1339 109.708 43.9416C109.626 43.7551 109.585 43.5511 109.579 43.3472C109.579 43.1432 109.614 42.9392 109.696 42.7527C109.777 42.5662 109.888 42.3914 110.034 42.2457C110.18 42.1 110.349 41.9835 110.541 41.9077C110.727 41.8319 110.931 41.7911 111.141 41.7911C111.345 41.7911 111.549 41.8377 111.736 41.9135C111.922 41.9951 112.097 42.1117 112.237 42.2574C114.725 44.7458 116.124 48.1143 116.124 51.6285C116.124 55.1427 114.725 58.5111 112.237 60.9996C109.643 63.5871 104.818 64.8809 102.842 64.8809V64.8868Z" fill="black"/>
<path d="M134.12 42.0999C136.072 42.0999 137.984 42.6769 139.61 43.7608C141.236 44.8448 142.501 46.3833 143.246 48.1841C143.992 49.9849 144.191 51.9664 143.812 53.8779C143.433 55.7894 142.489 57.5436 141.108 58.9248C139.726 60.3002 137.966 61.2443 136.049 61.6231C134.132 62.0019 132.144 61.8096 130.344 61.0636C128.537 60.3177 126.999 59.053 125.909 57.4329C124.825 55.8127 124.242 53.9071 124.242 51.9606C124.242 49.3497 125.285 46.8438 127.133 44.9963C128.986 43.1489 131.498 42.1116 134.12 42.1116V42.0999ZM134.12 39.0228C131.556 39.0228 129.05 39.7804 126.917 41.2024C124.784 42.6244 123.123 44.6408 122.144 47.0069C121.165 49.3672 120.908 51.9722 121.404 54.4782C121.905 56.9842 123.141 59.292 124.953 61.0986C126.765 62.9052 129.079 64.1407 131.591 64.6361C134.108 65.1373 136.713 64.8808 139.08 63.9018C141.452 62.9227 143.474 61.2676 144.902 59.1405C146.324 57.0133 147.087 54.5132 147.087 51.9547C147.087 48.528 145.723 45.2353 143.287 42.8109C140.857 40.3865 137.559 39.0228 134.12 39.0228Z" fill="black"/>
<path d="M55.4155 62.1127C57.4727 63.727 59.9728 64.6886 62.5837 64.8576C65.1945 65.0324 67.7996 64.4089 70.0549 63.0743L71.6401 64.304C71.7974 64.438 71.9839 64.5371 72.1762 64.5953C72.3744 64.6536 72.5842 64.6769 72.7882 64.6536C72.9921 64.6303 73.1903 64.572 73.3768 64.473C73.5574 64.3739 73.7148 64.2398 73.843 64.0767C73.9712 63.9135 74.0645 63.727 74.1227 63.5288C74.1752 63.3307 74.1927 63.1209 74.1635 62.9169C74.1344 62.713 74.0703 62.5148 73.9654 62.34C73.8605 62.1652 73.7206 62.0078 73.5574 61.8854L72.5784 61.1161C72.9513 60.749 73.3068 60.3585 73.6332 59.9506C75.2242 57.9458 76.18 55.5098 76.3839 52.963C76.5879 50.4163 76.0284 47.8637 74.7754 45.6258C73.5225 43.3938 71.6401 41.5813 69.3556 40.4158C67.0711 39.2502 64.4952 38.7898 61.9484 39.087C59.4017 39.3842 57.0006 40.4274 55.0483 42.0883C53.096 43.7493 51.6798 45.9463 50.9805 48.4057C50.2812 50.865 50.3278 53.4817 51.1204 55.9119C51.9071 58.3479 53.4049 60.4926 55.4155 62.0777V62.0952V62.1127ZM69.5712 44.2563C71.1039 45.4626 72.2462 47.1002 72.8464 48.9535C73.4467 50.8067 73.4875 52.7998 72.9572 54.6706C72.4268 56.5471 71.3487 58.2197 69.8626 59.4843C68.3765 60.749 66.5466 61.5474 64.6059 61.7688C62.6653 61.9961 60.7013 61.6465 58.9588 60.7606C57.2163 59.8748 55.7826 58.4936 54.8269 56.7919C53.8711 55.0902 53.4457 53.1437 53.603 51.203C53.7604 49.2623 54.4888 47.4091 55.701 45.8764C56.5053 44.8624 57.5018 44.0115 58.6324 43.3763C59.763 42.7469 61.0102 42.3389 62.2981 42.1874C63.5861 42.0359 64.8915 42.135 66.1386 42.4905C67.3858 42.8401 68.5572 43.4346 69.5712 44.233V44.2504V44.2563Z" fill="black"/>
<path d="M82.987 12.9784C82.5791 12.9784 82.1828 13.1416 81.8972 13.4271C81.6058 13.7127 81.4426 14.109 81.4426 14.5169V63.3482C81.4426 63.7561 81.6058 64.1466 81.8972 64.438C82.1886 64.7235 82.5791 64.8867 82.987 64.8867C83.395 64.8867 83.7912 64.7235 84.0768 64.438C84.3682 64.1466 84.5314 63.7561 84.5314 63.3482V14.5111C84.5314 14.1032 84.3682 13.7127 84.0768 13.4271C83.7854 13.1416 83.395 12.9784 82.987 12.9784Z" fill="black"/>
<path d="M223.531 61.3783C220.005 61.3783 216.63 59.9797 214.136 57.4912C211.642 55.0085 210.243 51.64 210.237 48.1259V37.088C210.237 36.68 210.4 36.2896 210.692 35.9982C210.983 35.7068 211.374 35.5494 211.782 35.5494C212.19 35.5494 212.586 35.7126 212.871 35.9982C213.163 36.2838 213.326 36.68 213.326 37.088V48.1259C213.39 50.7834 214.497 53.3068 216.403 55.16C218.309 57.0133 220.867 58.0506 223.531 58.0506C226.194 58.0506 228.752 57.0133 230.658 55.16C232.564 53.3068 233.665 50.7775 233.735 48.1259V37.088C233.735 36.68 233.898 36.2896 234.184 35.9982C234.475 35.7068 234.866 35.5494 235.274 35.5494C235.682 35.5494 236.078 35.7126 236.363 35.9982C236.655 36.2838 236.818 36.68 236.818 37.088V48.1259C236.818 51.64 235.413 55.0085 232.919 57.4912C230.431 59.9738 227.051 61.3725 223.531 61.3783Z" fill="black"/>
<path d="M319.655 35.4504C323.175 35.4504 326.555 36.8491 329.043 39.3317C331.532 41.8144 332.936 45.1829 332.942 48.6971V59.7291C332.942 60.137 332.779 60.5275 332.487 60.8189C332.196 61.1045 331.806 61.2676 331.398 61.2676C330.99 61.2676 330.593 61.1045 330.308 60.8189C330.016 60.5275 329.853 60.137 329.853 59.7291V48.6971C329.725 46.0862 328.594 43.6269 326.7 41.8319C324.806 40.0311 322.283 39.0287 319.666 39.0287C317.049 39.0287 314.532 40.0311 312.632 41.8319C310.738 43.6327 309.607 46.092 309.479 48.6971V59.7291C309.479 60.137 309.316 60.5275 309.03 60.8189C308.739 61.1045 308.349 61.2676 307.941 61.2676C307.533 61.2676 307.136 61.1045 306.851 60.8189C306.559 60.5275 306.402 60.137 306.402 59.7291V48.6971C306.402 45.1887 307.807 41.8261 310.289 39.3434C312.778 36.8608 316.146 35.4621 319.66 35.4504H319.655Z" fill="black"/>
<path d="M267.892 28.4163C266.505 28.4163 265.38 29.541 265.38 30.928C265.38 32.3151 266.505 33.4398 267.892 33.4398C269.279 33.4398 270.404 32.3151 270.404 30.928C270.404 29.541 269.279 28.4163 267.892 28.4163Z" fill="black"/>
<path d="M256.16 80.1031C252.635 80.1031 249.26 78.6986 246.766 76.216C244.272 73.7333 242.873 71.4663 242.867 67.9522C242.867 67.5442 243.03 67.1537 243.322 66.8624C243.613 66.5768 244.004 66.4136 244.412 66.4136C244.819 66.4136 245.216 66.5768 245.501 66.8624C245.793 67.1537 245.956 67.5442 245.956 67.9522C246.067 69.4324 246.329 70.3357 246.545 70.9302C247.017 72.2356 247.757 73.4303 248.712 74.4385C249.668 75.4467 250.816 76.2568 252.098 76.8046C253.375 77.3524 254.756 77.638 256.143 77.638C257.53 77.638 258.911 77.3524 260.187 76.8046C261.464 76.251 262.618 75.4467 263.573 74.4385C264.529 73.4303 265.263 72.2356 265.736 70.9302C266.208 69.6247 266.412 68.2377 266.33 66.8507V37.0997C266.33 36.6918 266.493 36.3013 266.785 36.0099C267.076 35.7185 267.466 35.5612 267.874 35.5612C268.282 35.5612 268.679 35.7243 268.964 36.0099C269.256 36.2955 269.419 36.6918 269.419 37.0997V66.8507C269.419 70.359 268.02 73.7217 265.532 76.2102C263.049 78.6928 259.675 80.0973 256.16 80.109V80.1031Z" fill="black"/>
<path d="M350.938 38.4868C352.89 38.4868 354.802 39.0637 356.428 40.1477C358.054 41.2317 359.319 42.7702 360.064 44.571C360.81 46.3718 361.009 48.3532 360.63 50.2648C360.251 52.1763 359.307 53.9305 357.926 55.3117C356.544 56.6929 354.784 57.6311 352.867 58.0099C350.95 58.3888 348.962 58.1964 347.162 57.4505C345.355 56.7045 343.811 55.4399 342.727 53.8197C341.643 52.1996 341.06 50.2939 341.06 48.3474C341.06 45.7366 342.103 43.2306 343.951 41.3773C345.804 39.5299 348.316 38.4926 350.938 38.4926V38.4868ZM350.938 35.4097C348.374 35.4097 345.868 36.1673 343.735 37.5893C341.602 39.0113 339.941 41.0277 338.962 43.3938C337.983 45.754 337.721 48.3591 338.222 50.865C338.723 53.371 339.958 55.6788 341.771 57.4854C343.583 59.2921 345.897 60.5276 348.409 61.0229C350.926 61.5241 353.532 61.2677 355.898 60.2886C358.27 59.3095 360.292 57.6544 361.714 55.5273C363.142 53.4001 363.899 50.9 363.899 48.3416C363.899 44.909 362.535 41.6221 360.099 39.1977C357.669 36.7734 354.371 35.4097 350.932 35.4097H350.938Z" fill="black"/>
<path d="M193.704 64.4846L192.998 63.7852L192.824 63.6046C196.192 61.4832 199.042 58.6334 201.157 55.265C203.273 51.8965 204.602 48.0967 205.039 44.1455C205.482 40.1942 205.021 36.1963 203.704 32.4432C202.387 28.6901 200.237 25.2867 197.416 22.4777C193.972 19.0509 189.659 16.6324 184.933 15.4901C180.206 14.3421 175.259 14.5169 170.625 15.9797C165.992 17.4483 161.849 20.1582 158.655 23.8123C155.461 27.4663 153.328 31.9246 152.501 36.7034C151.673 41.4822 152.175 46.395 153.952 50.9058C155.73 55.4165 158.719 59.3561 162.589 62.2933C166.459 65.2305 171.063 67.0488 175.9 67.5558C180.737 68.0628 185.615 67.2353 190.009 65.1606L190.813 65.959L191.518 66.6583L196.017 71.1516C196.309 71.443 196.699 71.6003 197.113 71.6003C197.527 71.6003 197.917 71.4372 198.208 71.1516C198.5 70.8602 198.663 70.4697 198.663 70.0618C198.663 69.6538 198.5 69.2634 198.208 68.972L193.709 64.4846H193.704ZM178.633 64.6186C172.98 64.6069 167.531 62.5497 163.282 58.8316C159.04 55.1134 156.289 49.985 155.543 44.3961C154.797 38.8072 156.114 33.1426 159.238 28.4512C162.362 23.754 167.094 20.3505 172.543 18.8703C177.992 17.39 183.796 17.9262 188.884 20.3855C193.966 22.8448 197.981 27.0642 200.184 32.2509C202.387 37.4377 202.632 43.248 200.866 48.6038C199.1 53.9595 195.452 58.4878 190.586 61.3609L188.499 59.2803C188.208 58.9889 187.817 58.8258 187.404 58.8258C186.99 58.8258 186.599 58.9889 186.308 59.2803C186.017 59.5659 185.854 59.9622 185.854 60.3701C185.854 60.7781 186.017 61.1685 186.308 61.4599L187.666 62.8062C184.805 63.995 181.727 64.6128 178.627 64.6128L178.633 64.6186Z" fill="black"/>
<path d="M280.363 58.6043C282.42 60.2244 284.921 61.1802 287.531 61.3492C290.142 61.524 292.747 60.9005 295.003 59.5717L296.582 60.8014C296.903 61.052 297.311 61.1685 297.718 61.1219C298.126 61.0753 298.499 60.8655 298.75 60.545C299.001 60.2244 299.117 59.8165 299.071 59.4085C299.024 59.0006 298.814 58.6334 298.494 58.377L297.52 57.6078C297.893 57.2406 298.243 56.8559 298.569 56.448C300.16 54.4432 301.116 52.0072 301.32 49.4605C301.524 46.9079 300.965 44.3553 299.717 42.1233C298.464 39.8912 296.582 38.0788 294.298 36.9132C292.013 35.7476 289.437 35.2872 286.89 35.5844C284.344 35.8816 281.943 36.9248 279.99 38.5858C278.038 40.2467 276.622 42.4438 275.928 44.9031C275.229 47.3624 275.276 49.9791 276.068 52.4093C276.861 54.8454 278.358 56.99 280.369 58.5752V58.5927L280.363 58.6043ZM294.519 40.7479C296.052 41.9542 297.188 43.5919 297.794 45.4451C298.394 47.2984 298.429 49.2915 297.899 51.1622C297.369 53.0388 296.291 54.7113 294.805 55.9759C293.318 57.2406 291.489 58.039 289.548 58.2605C287.607 58.4878 285.643 58.1381 283.907 57.2522C282.164 56.3664 280.73 54.9852 279.775 53.2835C278.819 51.5818 278.393 49.6411 278.551 47.6946C278.708 45.754 279.431 43.9007 280.643 42.368C281.447 41.3481 282.438 40.4973 283.574 39.8679C284.705 39.2327 285.952 38.8305 287.24 38.6732C288.528 38.5216 289.833 38.6207 291.086 38.9704C292.339 39.3201 293.505 39.9145 294.525 40.7129V40.7362L294.519 40.7479Z" fill="black"/>
<path d="M244.371 28.4163C242.984 28.4163 241.859 29.541 241.859 30.928C241.859 32.3151 242.984 33.4398 244.371 33.4398C245.758 33.4398 246.882 32.3151 246.882 30.928C246.882 29.541 245.758 28.4163 244.371 28.4163Z" fill="black"/>
<path d="M244.371 35.5496C243.963 35.5496 243.566 35.7128 243.281 35.9983C242.989 36.2839 242.826 36.6802 242.826 37.0881V59.8399C242.826 60.2478 242.989 60.6383 243.281 60.9297C243.572 61.2211 243.963 61.3784 244.371 61.3784C244.779 61.3784 245.175 61.2152 245.46 60.9297C245.752 60.6441 245.915 60.2478 245.915 59.8399V37.0881C245.915 36.6802 245.752 36.2897 245.46 35.9983C245.169 35.7069 244.779 35.5496 244.371 35.5496Z" fill="black"/>
<path d="M430.412 44.8042C428.495 46.5409 425.89 47.5142 423.18 47.5142C420.47 47.5142 417.865 46.5409 415.947 44.8042C415.656 44.5478 415.266 44.4079 414.858 44.4138C414.45 44.4138 414.065 44.5653 413.78 44.8275C413.494 45.0898 413.331 45.4395 413.325 45.8066C413.325 46.1738 413.476 46.5293 413.762 46.7915C416.262 49.0469 419.654 50.3173 423.186 50.3173C426.717 50.3173 430.103 49.0527 432.609 46.7915C432.901 46.5293 433.064 46.1738 433.064 45.8008C433.064 45.4278 432.901 45.0723 432.609 44.8101C432.464 44.6818 432.294 44.5769 432.108 44.507C431.921 44.4371 431.718 44.4021 431.514 44.4021C431.1 44.4021 430.709 44.5478 430.418 44.8159L430.412 44.8042Z" fill="black"/>
<path d="M452.249 24.9663H449.807C448.869 22.5478 447.225 20.473 445.081 19.0103C442.942 17.5475 440.407 16.7665 437.813 16.7724C435.22 16.7724 432.691 17.5708 430.558 19.0394C428.425 20.5138 426.787 22.5944 425.855 25.0187L421.052 24.9838C420.114 22.5711 418.471 20.4963 416.338 19.0336C414.205 17.5708 411.676 16.7899 409.088 16.7899C406.5 16.7899 403.971 17.5708 401.838 19.0336C399.705 20.4963 398.062 22.5711 397.123 24.9838H395.125C394.717 24.9838 394.332 25.1469 394.046 25.4325C393.761 25.7181 393.598 26.1085 393.598 26.5107C393.598 26.9128 393.761 27.3032 394.046 27.5888C394.332 27.8744 394.722 28.0375 395.125 28.0375H396.348C396.284 28.5504 396.249 29.0691 396.243 29.5877C396.243 32.9912 397.596 36.2548 400.002 38.6617C402.409 41.0685 405.673 42.4206 409.076 42.4206C412.48 42.4206 415.743 41.0685 418.15 38.6617C420.557 36.2548 421.909 32.9912 421.909 29.5877C421.909 29.0749 421.868 28.562 421.804 28.055H425.091C425.027 28.5562 424.992 29.0574 424.992 29.5644C424.992 32.9679 426.344 36.2314 428.751 38.6383C431.158 41.0452 434.421 42.3973 437.825 42.3973C441.228 42.3973 444.492 41.0452 446.899 38.6383C449.306 36.2314 450.658 32.9679 450.658 29.5644C450.658 29.0458 450.617 28.5271 450.553 28.0142H452.243C452.651 28.0142 453.036 27.8511 453.321 27.5655C453.607 27.2799 453.77 26.8895 453.77 26.4873C453.77 26.0852 453.607 25.6948 453.321 25.4092C453.036 25.1236 452.645 24.9605 452.243 24.9605V24.9721L452.249 24.9663ZM409.076 39.3552C407.141 39.3552 405.253 38.784 403.645 37.7059C402.036 36.6336 400.783 35.1067 400.043 33.3175C399.303 31.5284 399.111 29.5644 399.49 27.6646C399.868 25.7647 400.801 24.0222 402.165 22.6585C403.534 21.2889 405.277 20.3623 407.171 19.9835C409.065 19.6047 411.034 19.797 412.818 20.5372C414.607 21.2773 416.134 22.5303 417.206 24.1387C418.278 25.7472 418.855 27.6354 418.855 29.5703C418.855 32.1636 417.824 34.6521 415.994 36.4879C414.158 38.3236 411.676 39.3493 409.082 39.3493L409.076 39.3552ZM437.825 39.3552C435.89 39.3552 434.002 38.784 432.393 37.7059C430.785 36.6336 429.532 35.1067 428.792 33.3175C428.052 31.5284 427.859 29.5644 428.238 27.6646C428.617 25.7647 429.549 24.0222 430.913 22.6585C432.283 21.2889 434.025 20.3623 435.919 19.9835C437.813 19.6047 439.783 19.797 441.566 20.5372C443.356 21.2773 444.882 22.5303 445.955 24.1387C447.027 25.7472 447.604 27.6354 447.604 29.5703C447.604 32.1636 446.572 34.6521 444.743 36.4879C442.907 38.3236 440.424 39.3493 437.831 39.3493L437.825 39.3552Z" fill="black"/>
<path d="M417.27 3.07708C426.222 3.07708 434.975 5.73458 442.417 10.7057C449.86 15.6768 455.664 22.746 459.091 31.0215C462.518 39.2911 463.415 48.3942 461.667 57.1767C459.918 65.9592 455.612 74.0249 449.277 80.3539C442.948 86.6829 434.882 90.9955 426.1 92.7438C417.317 94.4922 408.22 93.5947 399.944 90.168C391.675 86.7412 384.605 80.9425 379.629 73.4946C374.657 66.0524 372 57.2991 372 48.3476C372 42.4032 373.171 36.5171 375.444 31.0273C377.717 25.5375 381.051 20.543 385.258 16.3412C389.46 12.1393 394.454 8.80583 399.944 6.52716C405.434 4.25431 411.32 3.08292 417.265 3.08292L417.27 3.07708ZM417.27 0C407.707 0 398.365 2.83815 390.41 8.14729C382.461 13.4564 376.266 21.0093 372.606 29.8442C368.946 38.6792 367.99 48.4 369.855 57.777C371.72 67.1539 376.324 75.7674 383.084 82.5277C389.845 89.2879 398.458 93.8919 407.835 95.7568C417.212 97.6217 426.933 96.666 435.768 93.0061C444.603 89.3462 452.15 83.1513 457.465 75.2021C462.774 67.253 465.612 57.9052 465.612 48.3417C465.6 35.5264 460.501 23.2355 451.439 14.1732C442.377 5.111 430.086 0.0116556 417.27 0Z" fill="black"/>
<path d="M423.535 56.5997C422.148 56.5997 421.023 57.7245 421.023 59.1115C421.023 60.4985 422.148 61.6233 423.535 61.6233C424.922 61.6233 426.047 60.4985 426.047 59.1115C426.047 57.7245 424.922 56.5997 423.535 56.5997Z" fill="black"/>
</svg>
