<svg width="25" height="25" viewBox="0 0 25 25" fill="none" xmlns="http://www.w3.org/2000/svg">
<g clip-path="url(#clip0_1030_402)">
<path d="M5.89275 13.3313H17.0628L12.1828 18.2113C11.7928 18.6013 11.7928 19.2413 12.1828 19.6313C12.5728 20.0213 13.2028 20.0213 13.5928 19.6313L20.1828 13.0413C20.5728 12.6513 20.5728 12.0213 20.1828 11.6313L13.6028 5.03127C13.2128 4.64127 12.5828 4.64127 12.1928 5.03127C11.8028 5.42127 11.8028 6.05127 12.1928 6.44127L17.0628 11.3313H5.89275C5.34275 11.3313 4.89275 11.7813 4.89275 12.3313C4.89275 12.8813 5.34275 13.3313 5.89275 13.3313Z" fill="#4DB6C4"/>
</g>
<defs>
<clipPath id="clip0_1030_402">
<rect width="24" height="24" fill="white" transform="translate(0.892754 0.331299)"/>
</clipPath>
</defs>
</svg>
