<svg width="24" height="24" viewBox="0 0 24 24" fill="none" xmlns="http://www.w3.org/2000/svg">
<path d="M9.66824 10.7383C10.2824 10.498 10.8065 10.0727 11.168 9.52127C11.5294 8.96985 11.7102 8.3197 11.6853 7.66095C11.6853 4.72007 9.48626 4 6.96114 4H0V18.7574H7.15829C9.84265 18.7574 12.3602 17.4765 12.3602 14.475C12.428 13.6342 12.1945 12.7966 11.7013 12.1121C11.2082 11.4275 10.4875 10.9406 9.66824 10.7383ZM3.21517 6.47854H6.24834C7.41612 6.47854 8.47014 6.81203 8.47014 8.16877C8.47014 9.52552 7.65119 9.92724 6.491 9.92724H3.21517V6.47854ZM6.68816 16.2183H3.21517V12.1481H6.7564C8.18199 12.1481 9.08437 12.7469 9.08437 14.2552C9.08437 15.7635 8.00759 16.2107 6.68816 16.2107V16.2183ZM21.6569 6.19051H15.6663V4.73522H21.6569V6.19051ZM24 13.5351C24 10.3744 22.1498 7.73675 18.7981 7.73675C15.4464 7.73675 13.3232 10.185 13.3232 13.3911C13.3232 16.7185 15.4237 19 18.7981 19C21.3536 19 23.0066 17.8555 23.8028 15.4073H21.2095C21.0051 15.8439 20.6753 16.2098 20.262 16.4582C19.8487 16.7066 19.3707 16.8262 18.8891 16.8019C17.1678 16.8019 16.2654 15.7939 16.2654 14.0884H23.9773C23.9773 13.9065 23.9773 13.7246 23.9773 13.5351H24ZM16.2654 12.2542C16.2654 11.6511 16.5051 11.0727 16.9317 10.6463C17.3583 10.2199 17.937 9.9803 18.5403 9.9803H18.6768C20.1479 9.9803 20.891 10.8444 21.0199 12.2542H16.2654Z" fill="#D44246"/>
</svg>
