<svg width="25" height="24" viewBox="0 0 25 24" fill="none" xmlns="http://www.w3.org/2000/svg">
<g clip-path="url(#clip0_1030_344)">
<path d="M15.8998 11.99C15.8615 11.9755 15.8198 11.9685 15.7781 11.9685C15.6938 11.9685 15.6128 11.9984 15.5535 12.0516C15.1599 12.4029 14.6265 12.6 14.0698 12.6C13.5132 12.6 12.9798 12.4029 12.5861 12.0516C12.526 12.0002 12.4459 11.9717 12.3625 11.9722C12.2791 11.9731 12.1996 12.003 12.1408 12.0554C12.0821 12.1081 12.0489 12.1792 12.048 12.2534C12.0475 12.3277 12.0797 12.3992 12.1375 12.4529C12.6505 12.9098 13.3455 13.1657 14.0703 13.1657C14.7951 13.1657 15.4896 12.9093 16.0031 12.4529C16.0628 12.3996 16.0964 12.3277 16.0964 12.252C16.0964 12.1764 16.0628 12.1044 16.0031 12.0512C15.9737 12.025 15.9387 12.004 15.8998 11.9895V11.99Z" fill="#D44246"/>
<path d="M20.7775 19.516C20.5117 19.1993 20.2398 18.8176 20.2393 18.399L20.2606 17.8642C22.4308 15.6813 23.5805 12.5902 23.3379 9.573C23.1333 7.02991 21.9405 4.8568 19.9783 3.45446C17.6224 1.76997 13.6976 0 13.0585 0C12.4839 0 8.41318 1.71672 5.91143 3.45166C3.95588 4.80775 2.75735 6.94209 2.5366 9.46089C2.27605 12.4319 3.42578 15.5981 5.54381 17.781L5.56797 18.3869C5.56797 18.8176 5.29606 19.1993 5.03029 19.516L4.87681 19.6986C4.66079 19.956 4.55894 20.2807 4.59068 20.6133C4.62242 20.9459 4.78348 21.2462 5.04403 21.4592C5.27095 21.6447 5.55803 21.747 5.85268 21.747C6.01328 21.747 6.16913 21.7157 6.31457 21.6597C6.33352 21.9941 6.4529 22.309 6.69639 22.5075C6.92331 22.693 7.21039 22.7948 7.50457 22.7948C7.75565 22.7948 7.99583 22.721 8.20048 22.5888C8.26111 22.8097 8.38476 23.005 8.56951 23.1559C8.79642 23.3413 9.0835 23.4436 9.37816 23.4436C9.75762 23.4436 10.1134 23.2787 10.355 22.991L10.5085 22.8083C10.6264 22.6677 10.7311 22.5131 10.8244 22.3501V22.8186C10.8244 23.4703 11.3621 24.0005 12.023 24.0005C12.3716 24.0005 12.6852 23.8519 12.9046 23.6165C13.1239 23.8519 13.4371 24.0005 13.7862 24.0005C14.447 24.0005 14.9842 23.4703 14.9842 22.8186V22.3501C15.0776 22.5131 15.1818 22.6677 15.3002 22.8083L15.4537 22.991C15.6953 23.2787 16.0516 23.4436 16.4305 23.4436C16.7252 23.4436 17.0123 23.3413 17.2387 23.1564C17.4235 23.0055 17.5471 22.8097 17.6082 22.5888C17.8124 22.7214 18.0526 22.7948 18.3041 22.7948C18.5983 22.7948 18.8854 22.6925 19.1128 22.5075C19.3563 22.3085 19.4756 21.9941 19.4946 21.6597C19.64 21.7157 19.7959 21.747 19.9565 21.747C20.2511 21.747 20.5382 21.6447 20.7647 21.4597C21.0257 21.2467 21.1868 20.9463 21.218 20.6137C21.2498 20.2811 21.1479 19.9565 20.9319 19.6991L20.7784 19.5164L20.7775 19.516ZM20.3591 20.9776C20.244 21.0715 20.1048 21.1215 19.9555 21.1215C19.7656 21.1215 19.5875 21.0388 19.4666 20.895L19.3132 20.7123C18.6973 19.9794 18.4396 19.5426 18.4396 18.7363V18.1024C18.4396 17.9296 18.2975 17.7899 18.1227 17.7899C17.9479 17.7899 17.8058 17.93 17.8058 18.1024V18.7363C17.8058 19.7047 18.1473 20.2765 18.649 20.8973C18.9062 21.2042 18.9389 21.8362 18.7077 22.0254C18.5926 22.1193 18.4529 22.1693 18.3036 22.1693C18.1137 22.1693 17.9356 22.0866 17.8152 21.9432L17.6613 21.7601C17.5836 21.6676 17.5111 21.5709 17.4429 21.4719C17.4235 21.435 17.4031 21.3981 17.3808 21.3612L17.054 20.7436C16.8801 20.3087 16.7882 19.8425 16.7882 19.3698V18.7359C16.7882 18.563 16.6461 18.4233 16.4713 18.4233C16.2965 18.4233 16.1544 18.5635 16.1544 18.7359V19.3698C16.1544 20.2307 16.4149 21.0725 16.8943 21.7858C17.0426 22.0815 17.1013 22.4561 16.8346 22.6738C16.7195 22.7677 16.5802 22.8177 16.431 22.8177C16.241 22.8177 16.0629 22.735 15.9421 22.5911L15.7886 22.4085C15.1951 21.7022 14.9847 20.5273 14.9847 19.736C14.9847 19.5631 14.8426 19.4235 14.6678 19.4235C14.493 19.4235 14.3509 19.5636 14.3509 19.736V22.8177C14.3509 23.1246 14.0979 23.374 13.7867 23.374C13.4754 23.374 13.2225 23.1246 13.2225 22.8177V19.736C13.2225 19.5631 13.0803 19.4235 12.9055 19.4235C12.7307 19.4235 12.5886 19.5636 12.5886 19.736V22.8177C12.5886 23.1246 12.3352 23.374 12.0244 23.374C11.7136 23.374 11.4602 23.1246 11.4602 22.8177V19.736C11.4602 19.5631 11.3181 19.4235 11.1433 19.4235C10.9685 19.4235 10.8263 19.5636 10.8263 19.736C10.8263 20.5273 10.6155 21.7022 10.0224 22.4085L9.86894 22.5911C9.74814 22.735 9.57002 22.8172 9.38053 22.8172C9.23131 22.8172 9.09156 22.7677 8.97644 22.6733C8.70926 22.4552 8.76895 22.0805 8.91722 21.7844C9.39616 21.0715 9.65671 20.2298 9.65671 19.3693V18.7354C9.65671 18.5625 9.51459 18.4229 9.33979 18.4229C9.16498 18.4229 9.02287 18.563 9.02287 18.7354V19.3693C9.02287 19.8425 8.93049 20.3092 8.75663 20.7441L8.43023 21.3602C8.40797 21.3967 8.38807 21.4331 8.36865 21.47C8.30043 21.5695 8.22748 21.6662 8.14979 21.7591L7.9963 21.9423C7.8755 22.0861 7.69738 22.1684 7.50789 22.1684C7.35866 22.1684 7.21891 22.1184 7.1038 22.0245C6.87262 21.8353 6.90531 21.2033 7.16254 20.8964C7.66422 20.2755 8.00577 19.7038 8.00577 18.7354V18.1015C8.00577 17.9286 7.86366 17.789 7.68885 17.789C7.51404 17.789 7.37193 17.9291 7.37193 18.1015V18.7354C7.37193 19.5417 7.11422 19.978 6.49837 20.7114L6.34489 20.894C6.22409 21.0379 6.04596 21.1201 5.85647 21.1201C5.70725 21.1201 5.5675 21.0706 5.45239 20.9762C5.32211 20.8697 5.24158 20.7198 5.22547 20.5535C5.20984 20.3872 5.26053 20.2251 5.36854 20.0961L5.52202 19.9135C5.84037 19.5347 6.20561 19.0185 6.20561 18.3734L6.18666 17.8922C6.27051 17.7708 6.25867 17.6045 6.14924 17.497C4.0601 15.4369 2.91842 12.3781 3.1695 9.51367C3.37415 7.18127 4.47793 5.20902 6.27904 3.96037C8.75284 2.24272 12.6478 0.650719 13.0557 0.622691C13.5294 0.650252 17.2359 2.2628 19.6078 3.9585C21.4179 5.25247 22.5189 7.26348 22.7084 9.62205C22.9391 12.494 21.8296 15.4379 19.7409 17.4979C19.7371 17.5017 19.7343 17.5064 19.7305 17.5106C19.6727 17.5647 19.6348 17.64 19.6315 17.724L19.6055 18.3869C19.6055 19.0199 19.9707 19.5361 20.289 19.9149L20.4425 20.0976C20.5505 20.226 20.6012 20.3886 20.5856 20.5549C20.57 20.7212 20.489 20.8711 20.3587 20.9781L20.3591 20.9776Z" fill="#D44246"/>
<path d="M17.4797 6.23858C17.5385 6.18066 17.5716 6.10218 17.5716 6.01996C17.5716 5.93774 17.5385 5.85927 17.4797 5.80134C17.421 5.74342 17.3414 5.71072 17.258 5.71072V5.71305H16.88C16.2651 4.8325 15.2357 4.25372 14.0717 4.25372C12.9078 4.25372 11.8788 4.8325 11.2635 5.71305H10.8854V5.71072C10.8025 5.71072 10.7225 5.74342 10.6637 5.80134C10.605 5.85927 10.5718 5.93774 10.5718 6.01996C10.5718 6.10218 10.605 6.18066 10.6637 6.23858C10.7225 6.2965 10.8021 6.3292 10.8854 6.3292H10.9233C10.7561 6.72534 10.6637 7.1593 10.6637 7.61476C10.6637 9.46788 12.1924 10.9753 14.0717 10.9753C15.951 10.9753 17.4797 9.46788 17.4797 7.61476C17.4797 7.15977 17.3869 6.72534 17.2201 6.3292H17.258C17.3409 6.3292 17.421 6.2965 17.4797 6.23858ZM14.0722 10.3522C12.5411 10.3522 11.2957 9.12407 11.2957 7.61476C11.2957 6.10545 12.5411 4.87735 14.0722 4.87735C15.6033 4.87735 16.8487 6.10545 16.8487 7.61476C16.8487 9.12407 15.6033 10.3522 14.0722 10.3522Z" fill="#D44246"/>
<path d="M14.1627 7.12616C13.8893 7.12616 13.6672 7.34478 13.6672 7.61478C13.6672 7.88479 13.8889 8.10341 14.1627 8.10341C14.4365 8.10341 14.6582 7.88479 14.6582 7.61478C14.6582 7.34478 14.4365 7.12616 14.1627 7.12616Z" fill="#D44246"/>
</g>
<defs>
<clipPath id="clip0_1030_344">
<rect width="20.8696" height="24" fill="white" transform="translate(2.5)"/>
</clipPath>
</defs>
</svg>
