<svg width="24" height="24" viewBox="0 0 24 24" fill="none" xmlns="http://www.w3.org/2000/svg">
<path d="M13.2188 2.25C14.2703 4.73175 9.4485 6.252 9 8.3205C8.58975 10.2188 11.8568 12.4455 11.8597 12.4455C11.361 11.6603 10.998 10.998 10.5 9.77325C9.65625 7.70475 15.6412 5.83875 13.2188 2.25ZM16.4062 5.6955C16.4062 5.6955 12.1905 5.96175 11.9767 8.71875C11.8793 9.9465 13.0898 10.5908 13.125 11.4848C13.155 12.2138 12.3983 12.8198 12.3983 12.8198C12.3983 12.8198 13.755 12.5745 14.1795 11.4608C14.6483 10.2248 13.266 9.381 13.4062 8.39025C13.5413 7.4445 16.4062 5.6955 16.4062 5.6955ZM17.4375 12.0465C16.995 12.0263 16.497 12.1905 16.0545 12.5153C16.9275 12.3225 17.6722 12.87 17.6722 13.5C17.6722 14.9123 15.6562 16.242 15.6562 16.242C15.6562 16.242 18.7733 15.8933 18.7733 13.5705C18.7733 12.612 18.1733 12.0818 17.4375 12.0465ZM9.16425 12.0705C8.07675 12.108 5.90625 12.2873 5.90625 13.125C5.90625 14.2913 10.9627 14.382 14.5785 13.6643C14.5785 13.6643 15.5625 12.9788 15.8205 12.7268C13.4505 13.2188 8.03925 13.2953 8.03925 12.867C8.03925 12.4748 9.77325 12.0705 9.77325 12.0705C9.77325 12.0705 9.52725 12.0585 9.16425 12.0705ZM8.83575 14.2268C8.241 14.2268 7.359 14.6895 7.359 15.1403C7.359 16.0485 11.8365 16.746 15.141 15.4215L13.992 14.7188C11.751 15.4515 7.611 15.2078 8.83575 14.2268ZM9.39825 16.2653C8.58675 16.2653 8.0625 16.7783 8.0625 17.1563C8.0625 18.3188 12.9113 18.4335 14.8358 17.25L13.617 16.4528C12.1815 17.0715 8.5695 17.1623 9.39825 16.2653ZM6.6795 17.3205C5.35575 17.2943 4.5 17.8943 4.5 18.3975C4.5 21.078 18.0705 20.9498 18.0705 18.21C18.0705 17.7563 17.5343 17.5395 17.3438 17.4368C18.4515 20.0558 6.258 19.851 6.258 18.3038C6.258 17.9528 7.16025 17.601 7.992 17.7653L7.28925 17.3663C7.0873 17.3369 6.88357 17.3221 6.6795 17.3205ZM19.5 19.125C17.4375 21.12 12.2175 21.8348 6.96075 20.6018C12.2168 22.7993 19.4738 21.5768 19.5 19.125Z" fill="#D44246"/>
</svg>
