<svg width="24" height="24" viewBox="0 0 24 24" fill="none" xmlns="http://www.w3.org/2000/svg">
<path d="M6.82518 19.9551H3.30689V8.63672H6.82518V19.9551ZM5.06604 7.0967C4.66007 7.09966 4.26234 6.98224 3.92324 6.7593C3.58414 6.53636 3.31892 6.21791 3.16117 5.84433C3.00341 5.47074 2.96024 5.05881 3.03708 4.66069C3.11391 4.26257 3.30732 3.89618 3.59282 3.60792C3.87831 3.31966 4.24303 3.12249 4.64081 3.04139C5.03859 2.96029 5.45152 2.99892 5.82731 3.15236C6.2031 3.3058 6.52484 3.56716 6.75178 3.90335C6.97873 4.23953 7.10066 4.63541 7.10215 5.04085C7.10415 5.58283 6.89097 6.1035 6.50933 6.48884C6.1277 6.87417 5.60872 7.09275 5.06604 7.0967ZM20 19.9551H16.4817V14.4828C16.4817 13.1746 16.4817 11.4925 14.6552 11.4925C12.8287 11.4925 12.5442 12.9204 12.5442 14.4006V20H9.02598V8.63672H12.432V10.1842C12.7685 9.60574 13.2563 9.12963 13.8431 8.80697C14.43 8.4843 15.0937 8.32725 15.7631 8.35264C19.3263 8.35264 19.9775 10.6926 19.9775 13.7352V19.9551H20Z" fill="#D44246"/>
</svg>
