<svg width="24" height="24" viewBox="0 0 24 24" fill="none" xmlns="http://www.w3.org/2000/svg">
<path d="M4.615 19C4.155 19 3.771 18.846 3.463 18.538C3.15433 18.2293 3 17.845 3 17.385V6.615C3 6.155 3.15433 5.771 3.463 5.463C3.771 5.15433 4.155 5 4.615 5H19.385C19.845 5 20.229 5.15433 20.537 5.463C20.8457 5.771 21 6.155 21 6.615V17.385C21 17.845 20.846 18.229 20.538 18.537C20.2293 18.8457 19.845 19 19.385 19H4.615ZM20 6.885L12.448 11.829C12.3773 11.8663 12.306 11.8973 12.234 11.922C12.162 11.9467 12.084 11.9593 12 11.96C11.9167 11.96 11.8387 11.9473 11.766 11.922C11.6933 11.8967 11.622 11.8657 11.552 11.829L4 6.885V17.385C4 17.5643 4.05767 17.7117 4.173 17.827C4.28833 17.9423 4.43567 18 4.615 18H19.385C19.5643 18 19.7117 17.9423 19.827 17.827C19.9423 17.7117 20 17.5643 20 17.385V6.885ZM12 11L19.692 6H4.308L12 11ZM4 7.096V6.285V6.319V6V6.32V6.268V7.096Z" fill="#F6F6F6"/>
</svg>
