<svg width="25" height="24" viewBox="0 0 25 24" fill="none" xmlns="http://www.w3.org/2000/svg">
<g clip-path="url(#clip0_1030_352)">
<path d="M24.4153 3.4553C24.3609 3.40096 24.2871 3.37055 24.2105 3.37055V3.37298H23.747C23.5694 2.91476 23.2572 2.52102 22.8512 2.24366C22.4453 1.9663 21.9652 1.81829 21.4738 1.81951C20.9823 1.82032 20.5026 1.97035 20.0979 2.24934C19.6993 2.52427 19.3927 2.91152 19.2155 3.36163C18.883 3.34581 18.6101 3.3446 18.2889 3.35879C18.1105 2.90828 17.8023 2.52102 17.4025 2.24731C16.9978 1.96995 16.5185 1.82153 16.0279 1.82153C16.0072 1.82153 15.9865 1.82315 15.9658 1.82397C15.8762 1.69745 15.7724 1.58026 15.652 1.47726C15.2209 1.10785 14.6524 0.946461 14.0912 1.03364C12.865 1.22504 11.6862 1.61027 10.5832 2.17472C10.4993 2.04902 10.4141 1.92372 10.3249 1.80085C9.99199 1.34142 9.4766 1.05149 8.91092 1.00607C8.34484 0.961059 7.79012 1.16422 7.38786 1.56445C6.50833 2.43992 5.78126 3.44435 5.22046 4.54975C5.07853 4.49744 4.9362 4.44594 4.79184 4.3989C4.25212 4.22291 3.66495 4.29185 3.18038 4.58746C2.6958 4.88307 2.36654 5.37413 2.27652 5.93453C2.07944 7.15996 2.08187 8.39998 2.27773 9.62378C2.13216 9.66474 1.98658 9.70691 1.84222 9.75395C1.3021 9.92872 0.867398 10.3298 0.649239 10.8537C0.431079 11.3776 0.453381 11.9688 0.709658 12.4749C1.27047 13.5819 2.00118 14.5839 2.87909 15.4589C2.78542 15.5778 2.69256 15.6974 2.60335 15.8203C2.26922 16.2793 2.15324 16.8587 2.28463 17.411C2.41601 17.9633 2.78136 18.4284 3.28662 18.6871C4.3912 19.2532 5.57121 19.6344 6.79583 19.8258C6.78974 19.977 6.78528 20.1283 6.78488 20.28C6.78447 20.8477 7.03102 21.3849 7.46207 21.7544C7.81607 22.0577 8.26334 22.2211 8.72277 22.2211C8.82252 22.2211 8.92268 22.2134 9.02244 22.198C10.2487 22.0066 11.4275 21.6214 12.5304 21.0569C12.6144 21.1826 12.6995 21.3079 12.7887 21.4308C13.1221 21.8902 13.6374 22.1801 14.2031 22.2255C14.2554 22.2296 14.3073 22.232 14.3592 22.232C14.8702 22.232 15.3612 22.0309 15.7266 21.6672C16.6523 20.7459 17.4114 19.6831 17.9828 18.5083C18.0497 18.3713 17.9925 18.2058 17.8555 18.1393C17.7184 18.0728 17.553 18.1296 17.4865 18.2666C16.9419 19.3858 16.2189 20.3984 15.3369 21.2759C15.049 21.5621 14.652 21.7081 14.2477 21.6753C13.843 21.6428 13.4744 21.4356 13.2364 21.1068C12.4327 19.9981 11.8472 18.7654 11.4956 17.4418C11.3942 17.0595 11.4615 16.6548 11.6781 16.3255C11.7081 16.3008 11.7312 16.2695 11.745 16.2335C11.9761 15.9374 12.3163 15.746 12.6922 15.7071C13.2023 15.654 13.534 15.6321 14.0393 15.6495C14.1285 15.652 14.206 15.6138 14.2583 15.553C14.3795 15.4999 14.4768 15.3316 14.4091 15.2027C14.1204 14.6516 13.6407 14.2449 13.0381 14.0766C12.4765 13.9201 11.8808 14.021 11.3784 14.3045C11.3257 14.3341 11.2936 14.3848 11.2778 14.4419C10.9161 14.0077 10.3898 13.7502 9.83263 13.6861C9.77261 13.6792 9.71665 13.7015 9.67043 13.7384C9.63312 13.1744 9.3586 12.6569 8.94539 12.277C8.90079 12.236 8.8428 12.221 8.7836 12.2239C9.08488 11.7454 9.16679 11.1655 9.05569 10.6156C9.04393 10.5564 9.0054 10.5102 8.95593 10.4778C9.48106 10.2677 9.88818 9.84721 10.1213 9.33669C10.1465 9.28195 10.1428 9.22193 10.1217 9.16638C10.67 9.30506 11.2466 9.20409 11.7356 8.92835C11.7884 8.89875 11.8204 8.84806 11.8362 8.79088C12.1979 9.22518 12.7243 9.48267 13.2814 9.54674C13.4298 9.56377 13.5576 9.40765 13.5576 9.27059C13.5576 9.10718 13.4302 9.01148 13.2814 8.99445C12.8836 8.94862 12.4781 8.72195 12.2166 8.39147C12.0321 8.1583 11.9181 7.85945 11.8861 7.56059C12.1671 7.76253 12.4201 7.91743 12.7664 8.11775C13.0653 8.2909 13.4002 8.3789 13.7372 8.3789C13.9541 8.3789 14.1723 8.3424 14.3819 8.2686C14.8426 8.1064 15.2201 7.77794 15.4472 7.35257C15.6301 7.75402 15.8349 8.14005 16.0672 8.51798V14.6046C16.0672 14.8758 15.8466 15.0964 15.5753 15.0964C15.3041 15.0964 15.0835 14.8758 15.0835 14.6046V10.8245C15.0835 10.672 14.9598 10.5483 14.8073 10.5483C14.6548 10.5483 14.5312 10.672 14.5312 10.8245V14.6046C14.5312 15.1804 14.9995 15.6487 15.5753 15.6487C16.1511 15.6487 16.6195 15.1804 16.6195 14.6046V9.33507C16.8141 9.59864 17.023 9.86181 17.2501 10.1274C17.6369 10.58 18.2001 10.8395 18.7954 10.8395C19.3907 10.8395 19.9539 10.58 20.3408 10.1278C20.5833 9.84397 20.8055 9.56377 21.0107 9.28316V14.605C21.0107 15.1808 21.479 15.6491 22.0548 15.6491C22.6307 15.6491 23.099 15.1808 23.099 14.605V10.8249C23.099 10.6724 22.9753 10.5487 22.8229 10.5487C22.6704 10.5487 22.5467 10.6724 22.5467 10.8249V14.605C22.5467 14.8762 22.3261 15.0968 22.0548 15.0968C21.7836 15.0968 21.563 14.8762 21.563 14.605V8.45635C21.9502 7.81809 22.26 7.16036 22.5147 6.44263C22.7649 6.32422 22.9964 6.16567 23.1959 5.96616C23.6521 5.50997 23.9084 4.89077 23.9084 4.24562C23.9076 4.14708 23.9011 4.04895 23.8885 3.95123H24.2093C24.2859 3.95123 24.3597 3.92081 24.414 3.86648C24.4684 3.81214 24.4988 3.73834 24.4988 3.6617C24.4988 3.58506 24.4684 3.51126 24.414 3.45692L24.4153 3.4553ZM11.7032 14.7505C12.0519 14.5539 12.513 14.4987 12.9193 14.6123C13.2056 14.6926 13.4736 14.8673 13.6752 15.0903C13.3293 15.092 13.0337 15.1155 12.6355 15.1568C12.3143 15.1901 12.013 15.3045 11.7519 15.4808C11.7129 15.2424 11.6343 15.0125 11.5183 14.7976C11.5803 14.8 11.6448 14.7834 11.7032 14.7505ZM16.7351 2.53359C17.0737 2.6739 17.3632 2.91152 17.5668 3.21646C17.7703 3.52139 17.879 3.87986 17.879 4.24643C17.879 4.7383 17.6835 5.2095 17.336 5.55742C16.9885 5.90493 16.5169 6.10038 16.0254 6.10038C15.6589 6.10038 15.3004 5.99171 14.9955 5.78815C14.6905 5.58459 14.4529 5.29506 14.3126 4.95606C14.1723 4.61746 14.1354 4.2444 14.2072 3.88513C14.2785 3.52545 14.4553 3.19537 14.7145 2.93585C14.9736 2.67674 15.3041 2.49994 15.6633 2.42857C16.023 2.3572 16.3957 2.3937 16.7343 2.534L16.7351 2.53359ZM2.82151 6.02253C2.88598 5.62189 3.12158 5.27073 3.46788 5.05906C3.81418 4.84779 4.23428 4.79832 4.62031 4.92443C5.92197 5.34899 7.12063 6.00225 8.18264 6.86637C8.48961 7.11616 8.67289 7.48314 8.69114 7.87729C8.68141 7.9146 8.681 7.95312 8.69114 7.99042C8.67816 8.36592 8.51556 8.72073 8.23414 8.97336C7.88825 9.28397 7.64495 9.48875 7.29013 9.73489C6.95924 9.42144 6.52779 9.23085 6.06552 9.20531C4.96783 9.14529 3.87825 9.24059 2.81462 9.48632C2.63579 8.33713 2.6366 7.17334 2.82151 6.02293V6.02253ZM7.82093 10.6063C8.05977 10.6432 8.30267 10.6392 8.54273 10.5954C8.52124 10.6534 8.51718 10.7199 8.53056 10.786C8.60963 11.1785 8.52002 11.6343 8.28604 11.985C8.12141 12.2324 7.87243 12.4331 7.59791 12.556C7.70334 12.2263 7.77227 11.938 7.85621 11.5467C7.92353 11.2312 7.90812 10.9088 7.82093 10.6063ZM1.20234 12.2255C1.01906 11.8634 1.00324 11.4408 1.15895 11.0662C1.31507 10.6915 1.62569 10.4048 2.01213 10.2799C3.3146 9.85816 4.66897 9.68177 6.03551 9.75679C6.43047 9.77828 6.79421 9.96765 7.04075 10.275C7.05494 10.3115 7.07765 10.3431 7.10766 10.3671C7.31771 10.6785 7.39435 11.0609 7.31568 11.4307C7.21836 11.8853 7.14172 12.1939 6.99979 12.6014C6.54766 12.5426 6.08661 12.6415 5.69773 12.8929C4.774 13.4898 3.9488 14.2072 3.23269 15.0311C2.41236 14.2064 1.72868 13.2644 1.20234 12.2251V12.2255ZM6.8303 19.2723C5.68192 19.087 4.5753 18.7269 3.53844 18.1957C3.17713 18.0108 2.91599 17.6779 2.82191 17.2833C2.72784 16.8887 2.81097 16.4739 3.04981 16.1459C3.85594 15.0388 4.84739 14.1009 5.9974 13.3576C6.3295 13.1431 6.735 13.0819 7.11577 13.1861C7.14861 13.2072 7.18551 13.2194 7.22363 13.2214C7.57642 13.3499 7.86351 13.6139 8.0172 13.9598C8.20616 14.3848 8.32538 14.6796 8.44987 15.0928C8.04964 15.3109 7.73497 15.6621 7.5679 16.094C7.17173 17.1195 6.92559 18.1851 6.8303 19.2727V19.2723ZM9.65502 14.167C9.70368 14.2055 9.76531 14.2299 9.83263 14.2376C10.2304 14.2834 10.6359 14.5101 10.8975 14.8406C11.082 15.0737 11.1959 15.3726 11.228 15.6714C10.9469 15.4695 10.6943 15.3146 10.3476 15.1143C10.0682 14.9525 9.7572 14.8677 9.44253 14.8572C9.55121 14.6415 9.62258 14.4091 9.65502 14.167ZM10.0711 15.5924C10.4737 15.8255 10.7434 15.9938 11.0868 16.2545C10.891 16.6661 10.8431 17.1353 10.9619 17.583C11.2442 18.6458 11.6712 19.6522 12.2336 20.5881C11.1959 21.1133 10.0889 21.4725 8.93769 21.6522C8.53705 21.7142 8.12993 21.599 7.82175 21.3351C7.51356 21.0711 7.33677 20.6867 7.33717 20.2808C7.33879 18.9114 7.5898 17.5696 8.08329 16.2927C8.22603 15.9237 8.5184 15.6357 8.8874 15.4967C8.92593 15.4942 8.96283 15.4829 8.99527 15.4618C9.35616 15.358 9.74382 15.4034 10.0715 15.5928L10.0711 15.5924ZM9.12787 13.8369C9.14003 14.1338 9.0565 14.4428 8.90687 14.7035C8.79819 14.375 8.68465 14.1009 8.52245 13.7352C8.39148 13.44 8.18954 13.1885 7.94137 12.9951C8.15628 12.8844 8.35052 12.7384 8.51921 12.5616C8.53583 12.6212 8.57152 12.6776 8.62139 12.723C8.91619 12.9939 9.11124 13.4156 9.12868 13.8369H9.12787ZM9.59663 9.16516C9.42996 9.5293 9.08934 9.84519 8.69398 9.99157C8.4154 10.095 8.09586 10.1112 7.80147 10.0492C8.08046 9.84438 8.30591 9.65176 8.60355 9.38413C8.84361 9.16841 9.02041 8.89875 9.12787 8.60273C9.29939 8.77304 9.49809 8.91254 9.71828 9.01837C9.66678 9.05284 9.6242 9.10393 9.59622 9.16516H9.59663ZM11.4112 8.48068C11.0625 8.67734 10.6015 8.73249 10.1951 8.61895C9.90886 8.53866 9.64082 8.36389 9.43929 8.14087C9.78518 8.13924 10.0812 8.11573 10.479 8.07436C10.8002 8.04111 11.1014 7.92676 11.3626 7.75037C11.4015 7.9888 11.4802 8.21872 11.5962 8.43364C11.5341 8.4312 11.4696 8.44783 11.4112 8.48068ZM11.4364 6.90652C11.4064 6.93126 11.3833 6.96248 11.3695 6.99857C11.1383 7.29458 10.7981 7.48598 10.4222 7.52491C9.95955 7.57316 9.64245 7.59547 9.21099 7.58614C9.12746 7.13806 8.89065 6.73013 8.53137 6.43776C7.6782 5.74395 6.74109 5.18071 5.73625 4.75412C6.26705 3.71928 6.95195 2.77811 7.77755 1.95616C8.06505 1.66988 8.46203 1.5239 8.86672 1.55674C9.27141 1.58918 9.64001 1.79639 9.87804 2.12485C10.6817 3.23349 11.2673 4.46662 11.6189 5.78977C11.7202 6.17175 11.6529 6.57644 11.4364 6.90611V6.90652ZM15.0312 6.93896C14.8848 7.3177 14.5815 7.61209 14.1987 7.74712C13.8163 7.88216 13.395 7.84282 13.0434 7.63926C12.6411 7.4065 12.3715 7.23822 12.0276 6.97667C12.2235 6.56509 12.2717 6.09592 12.1529 5.64825C11.8707 4.58543 11.4437 3.57898 10.8813 2.64308C11.9189 2.11795 13.0259 1.75868 14.1772 1.57904C14.5782 1.51619 14.9849 1.63216 15.2931 1.89615C15.3041 1.90547 15.3138 1.91601 15.3243 1.92575C15.0871 1.99752 14.8604 2.10498 14.6536 2.2469C14.2489 2.52427 13.9371 2.9172 13.7599 3.37501H13.3812C13.3045 3.37501 13.2307 3.40542 13.1764 3.45976C13.1221 3.5141 13.0916 3.5879 13.0916 3.66454C13.0916 3.74118 13.1221 3.81498 13.1764 3.86931C13.2307 3.92365 13.3045 3.95406 13.3812 3.95406H13.6127C13.6001 4.05179 13.5937 4.14992 13.5928 4.24846C13.5928 4.89361 13.8491 5.51281 14.3053 5.969C14.5344 6.19811 14.8045 6.37653 15.0985 6.49777C15.1139 6.54035 15.1301 6.58171 15.1459 6.62389C15.1094 6.72932 15.0713 6.83393 15.0312 6.93855V6.93896ZM19.9215 9.76733C19.6397 10.097 19.2293 10.286 18.7958 10.286C18.3623 10.286 17.952 10.097 17.6702 9.76733C17.2501 9.27586 16.892 8.79372 16.583 8.29982C16.5773 8.28968 16.5717 8.28036 16.5648 8.27103C16.2456 7.75686 15.9796 7.2293 15.7534 6.66525C15.8434 6.67538 15.9342 6.68187 16.0258 6.68187C16.671 6.68187 17.2898 6.42559 17.746 5.96941C18.2022 5.51322 18.4585 4.89402 18.4585 4.24886C18.4576 4.15154 18.4512 4.05463 18.4386 3.95812H19.0618C19.0497 4.05301 19.0436 4.14871 19.0432 4.2444C19.0432 4.88956 19.2995 5.50876 19.7556 5.96495C20.2118 6.42113 20.8306 6.67782 21.4758 6.67782C21.6011 6.67782 21.7248 6.66525 21.8472 6.64619C21.4024 7.76416 20.7978 8.74222 19.9207 9.76774L19.9215 9.76733ZM22.7872 5.55742C22.4397 5.90493 21.9681 6.10038 21.4766 6.10038C21.11 6.10038 20.7516 5.99171 20.4466 5.78815C20.1417 5.58459 19.9041 5.29506 19.7638 4.95606C19.6235 4.61746 19.5866 4.2444 19.6583 3.88513C19.7297 3.52545 19.9065 3.19537 20.1656 2.93585C20.4247 2.67674 20.7552 2.49994 21.1145 2.42857C21.4742 2.3572 21.8468 2.3937 22.1854 2.534C22.524 2.6743 22.8135 2.91193 23.0171 3.21686C23.2207 3.5218 23.3293 3.88026 23.3293 4.24684C23.3293 4.73871 23.1339 5.2099 22.7864 5.55782L22.7872 5.55742Z" fill="#D44246"/>
<path d="M21.108 3.93014C20.9332 4.13371 20.9563 4.44027 21.1599 4.61504C21.3635 4.78981 21.67 4.76669 21.8448 4.56313C22.0196 4.35957 21.9965 4.05301 21.7929 3.87824C21.5893 3.70347 21.2828 3.72658 21.108 3.93014Z" fill="#D44246"/>
<path d="M15.7091 4.61504C15.9127 4.78981 16.2193 4.76669 16.394 4.56313C16.5688 4.35957 16.5457 4.05301 16.3421 3.87824C16.1386 3.70347 15.832 3.72658 15.6572 3.93014C15.4825 4.13371 15.5056 4.44027 15.7091 4.61504Z" fill="#D44246"/>
</g>
<defs>
<clipPath id="clip0_1030_352">
<rect width="24" height="21.2316" fill="white" transform="translate(0.5 1)"/>
</clipPath>
</defs>
</svg>
