<svg width="24" height="24" viewBox="0 0 24 24" fill="none" xmlns="http://www.w3.org/2000/svg">
<path fill-rule="evenodd" clip-rule="evenodd" d="M3.0001 15.8C1.8001 14.6 1.8001 12.6 3.0001 11.4L6.4001 8.00001C7.4001 7.00001 9.0001 6.80001 10.4001 7.60001C10.8001 7.80001 10.8001 8.40001 10.4001 8.60001C10.0001 8.80001 9.4001 8.80001 9.0001 8.60001C8.4001 8.40001 7.8001 8.60001 7.4001 9.00001L4.0001 12.4C3.4001 13 3.4001 14 4.0001 14.6C4.6001 15.2 5.6001 15.2 6.2001 14.6L13.2001 8.00001C14.4001 6.80001 16.4001 6.80001 17.8001 8.00001L21.2001 11.4C22.4001 12.6 22.4001 14.6 21.2001 15.8C20.0001 17 18.0001 17 16.6001 15.8L15.4001 14.6L14.0001 16C13.0001 17.2 11.4001 17.2 10.0001 16.6C9.8001 16.4 9.8001 15.8 10.0001 15.6C10.4001 15.2 10.8001 15.4 11.2001 15.4C11.8001 15.6 12.4001 15.4 12.8001 15L14.2001 13.6C14.8001 13 15.8001 13 16.4001 13.6L17.6001 14.8C18.2001 15.4 19.2001 15.4 19.8001 14.8C20.4001 14.2 20.4001 13.2 19.8001 12.6L16.6001 9.00001C16.0001 8.40001 14.8001 8.40001 14.2001 9.00001L7.4001 15.8C6.2001 17 4.2001 17 3.0001 15.8Z" fill="#D44246"/>
</svg>
