<svg width="24" height="24" viewBox="0 0 24 24" fill="none" xmlns="http://www.w3.org/2000/svg">
<path d="M0 17.1212H0.795375V13.9811L2.0265 16.7183C2.17144 17.0501 2.37 17.1666 2.76038 17.1666C3.15075 17.1666 3.34125 17.0501 3.48619 16.7183L4.71731 13.9811V17.121H5.51269V13.9864C5.51269 13.6802 5.39044 13.5323 5.13769 13.4561C4.53337 13.2679 4.12838 13.4304 3.94462 13.8384L2.73694 16.5403L1.56731 13.8384C1.39163 13.4304 0.978563 13.2679 0.375 13.4561C0.12225 13.5323 0 13.6802 0 13.9864L0 17.1212ZM6.17438 14.565H6.969V16.2951C6.96169 16.3888 6.999 16.6093 7.43475 16.6166H9.16406V14.5562H9.96094C9.96469 14.5562 9.95944 17.3657 9.95944 17.3775C9.96375 18.0703 9.10031 18.2205 8.70187 18.2323H6.19125V17.6976L8.70638 17.6968C9.21825 17.6434 9.1575 17.3884 9.1575 17.3034V17.0948H7.46775C6.68119 17.0874 6.18094 16.7439 6.17438 16.3491C6.17362 16.3133 6.19125 14.5826 6.17438 14.565ZM10.5733 17.1212H12.8599C13.1272 17.1212 13.3873 17.0648 13.5938 16.9682C13.938 16.8107 14.1056 16.5962 14.1056 16.3157V15.7348C14.1056 15.5055 13.9151 15.291 13.5401 15.1489C13.3416 15.072 13.0963 15.0317 12.8597 15.0317H11.8958C11.5749 15.0317 11.4219 14.9349 11.3839 14.7212C11.3766 14.6955 11.3766 14.6751 11.3766 14.6494V14.2875C11.3766 14.2671 11.3766 14.2464 11.3839 14.2209C11.4219 14.0584 11.5061 14.0123 11.7889 13.9866L11.8658 13.9815H14.1362V13.452H11.904C11.5832 13.452 11.4148 13.4724 11.2616 13.518C10.7878 13.6659 10.5812 13.9003 10.5812 14.3083V14.772C10.5812 15.1286 10.9862 15.4348 11.6666 15.5059C11.7435 15.5109 11.8196 15.5162 11.8959 15.5162H12.7221C12.7528 15.5162 12.7828 15.5162 12.8063 15.5213C13.0583 15.5417 13.1651 15.5878 13.242 15.6795C13.2816 15.7161 13.3042 15.7682 13.3027 15.8216V16.2861C13.3027 16.3418 13.2647 16.4136 13.1886 16.4743C13.1197 16.5358 13.0048 16.5761 12.8524 16.5864L12.7682 16.5915H10.5733V17.1212ZM19.0665 16.1983C19.0665 16.7439 19.4722 17.0494 20.2896 17.1109C20.3664 17.1159 20.4426 17.1212 20.5196 17.1212H22.5917V16.5909H20.5042C20.0378 16.5909 19.8619 16.4738 19.8619 16.1933V13.4509H19.0672V16.1981L19.0665 16.1983ZM14.6134 16.2261V14.3357C14.6134 13.8559 14.9511 13.5645 15.6174 13.4728C15.6885 13.4625 15.7603 13.4574 15.8321 13.4574H17.3409C17.4178 13.4574 17.4866 13.4625 17.5637 13.4728C18.2302 13.5643 18.5672 13.8559 18.5672 14.3357V16.2261C18.5672 16.6157 18.4243 16.8238 18.0941 16.9599L18.8779 17.6668H17.9543L17.3207 17.0948L16.6828 17.1351H15.8325C15.6745 17.1345 15.5173 17.1123 15.3652 17.0691C14.8592 16.9314 14.6138 16.6656 14.6138 16.2261H14.6134ZM15.4718 16.1799C15.4718 16.2056 15.4798 16.2311 15.4871 16.2621C15.5332 16.4818 15.7406 16.6041 16.0539 16.6041H16.7762L16.1126 16.005H17.0363L17.6149 16.5279C17.7218 16.4708 17.7921 16.3843 17.8162 16.2724C17.8243 16.2467 17.8243 16.2212 17.8243 16.1955V14.3828C17.8243 14.3623 17.8243 14.3366 17.8162 14.3109C17.7701 14.1066 17.5635 13.9894 17.2575 13.9894H16.0541C15.7018 13.9894 15.4719 14.1424 15.4719 14.3828L15.4718 16.1799ZM23.2911 12.5713C22.8026 12.5582 22.4289 12.6036 22.1096 12.7384C22.0189 12.7764 21.8738 12.7772 21.8591 12.8908C21.909 12.9435 21.9171 13.0219 21.9566 13.0856C22.0327 13.2094 22.1617 13.3742 22.2767 13.4606C22.4012 13.5559 22.5308 13.6569 22.6656 13.7389C22.9043 13.8846 23.1716 13.9682 23.4024 14.1139C23.538 14.2003 23.6726 14.3087 23.8052 14.4062C23.8704 14.4538 23.9143 14.5292 24 14.5592V14.5453C23.9554 14.4881 23.9436 14.4098 23.9025 14.3505L23.7216 14.1696C23.5451 13.9352 23.3209 13.7293 23.0822 13.5579C22.8917 13.4216 22.467 13.2371 22.3871 13.0159L22.3732 13.002C22.5081 12.9874 22.6663 12.9383 22.7901 12.9053C22.9995 12.8488 23.1862 12.8634 23.4017 12.8078L23.694 12.7236V12.6686C23.5849 12.5565 23.5072 12.4086 23.3878 12.3068C23.0773 12.0424 22.7374 11.7773 22.3873 11.556C22.1933 11.4338 21.9538 11.3546 21.7479 11.2506C21.6791 11.2155 21.5574 11.1979 21.5113 11.1392C21.4037 11.0016 21.345 10.8272 21.2616 10.6667C21.0835 10.3201 20.9166 9.96786 20.7613 9.6105C20.6559 9.36957 20.5869 9.13144 20.4551 8.91544C19.8246 7.87763 19.1449 7.25138 18.0922 6.63619C17.8689 6.50513 17.5986 6.45375 17.3145 6.38644L16.8553 6.35869C16.7623 6.31913 16.6656 6.20494 16.5778 6.15C16.2292 5.9295 15.3349 5.45063 15.0763 6.08044C14.9137 6.47813 15.3203 6.86625 15.4659 7.06782C15.5677 7.20919 15.6988 7.36744 15.7714 7.52625C15.8197 7.63031 15.8278 7.73494 15.8689 7.84556C15.9699 8.118 16.0579 8.41388 16.1889 8.66588C16.2549 8.79338 16.3273 8.92744 16.4109 9.04088C16.4621 9.11044 16.5501 9.14194 16.5639 9.24957C16.4783 9.36975 16.4732 9.55575 16.4248 9.708C16.2073 10.3928 16.2893 11.2438 16.6058 11.7514C16.7025 11.9066 16.9309 12.2406 17.2451 12.1125C17.5198 12.0004 17.4583 11.6541 17.5367 11.3479C17.5551 11.2791 17.544 11.2277 17.5785 11.1816V11.1954L17.829 11.6957C18.0142 11.9938 18.3424 12.3051 18.6208 12.5153C18.7657 12.6244 18.8794 12.8134 19.0661 12.8771V12.8625H19.0522C19.0157 12.8068 18.9593 12.7834 18.9131 12.738C18.804 12.6311 18.6831 12.4986 18.5938 12.3761C18.3403 12.0326 18.1162 11.6561 17.9126 11.2643C17.8151 11.0775 17.7302 10.8709 17.6483 10.6806C17.6168 10.6073 17.6175 10.4961 17.5515 10.4586C17.4615 10.5977 17.3289 10.7106 17.2592 10.8754C17.1478 11.1383 17.1339 11.4598 17.0921 11.7924L17.0644 11.8063C16.8711 11.7594 16.8028 11.5603 16.7312 11.3895C16.5487 10.9573 16.5152 10.2608 16.6755 9.7635C16.7166 9.63469 16.9041 9.22875 16.8279 9.11025C16.7921 8.99157 16.6727 8.92275 16.6059 8.832C16.5187 8.71031 16.4441 8.58001 16.3834 8.44313C16.2347 8.10544 16.1651 7.72763 16.0084 7.38694C15.9338 7.22363 15.807 7.05882 15.7029 6.91388C15.5872 6.75357 15.4583 6.63563 15.369 6.44138C15.3375 6.37257 15.2944 6.26194 15.3412 6.19088C15.3559 6.14325 15.3778 6.12357 15.4247 6.10819C15.5053 6.04594 15.7301 6.12863 15.8136 6.16313C16.0369 6.25613 16.2231 6.34406 16.4119 6.46931C16.5019 6.52931 16.5936 6.64575 16.7034 6.678H16.8287C17.0243 6.72263 17.2432 6.69113 17.4264 6.74682C17.7495 6.84488 18.0396 6.99806 18.3017 7.16438C19.1029 7.66969 19.7578 8.38969 20.2059 9.24882C20.2785 9.38719 20.3092 9.519 20.373 9.66563C20.5012 9.9615 20.6623 10.2662 20.7898 10.5555C20.9173 10.8448 21.0411 11.1356 21.2205 11.3758C21.315 11.5018 21.6804 11.5691 21.846 11.6394C21.9624 11.6886 22.1529 11.7398 22.2628 11.8065C22.4738 11.9333 22.6774 12.084 22.8752 12.2233C22.9732 12.2936 23.2766 12.4461 23.292 12.5711L23.2911 12.5713ZM17.0779 7.27594C16.9938 7.2745 16.9099 7.28383 16.8281 7.30369V7.31757H16.842C16.8904 7.41788 16.9761 7.48238 17.0361 7.56806L17.1752 7.85963L17.1891 7.8465C17.2755 7.78575 17.3143 7.68825 17.3143 7.54032C17.2793 7.50375 17.2747 7.45838 17.2448 7.41507C17.2052 7.35713 17.1285 7.32507 17.0779 7.27594Z" fill="#D44246"/>
</svg>
