<svg width="24" height="24" viewBox="0 0 24 24" fill="none" xmlns="http://www.w3.org/2000/svg">
<path d="M16.195 8.981H11.607V0H16.195C18.671 0 20.685 2.014 20.685 4.49C20.685 6.966 18.671 8.981 16.195 8.981ZM13.078 7.51H16.195C17.86 7.51 19.214 6.155 19.214 4.491C19.214 2.827 17.859 1.472 16.195 1.472H13.078V7.51ZM13.078 8.981H8.491C6.015 8.981 4.001 6.967 4.001 4.491C4.001 2.015 6.015 0 8.491 0H13.079V8.981H13.078ZM8.491 1.471C6.826 1.471 5.472 2.826 5.472 4.49C5.472 6.154 6.826 7.51 8.491 7.51H11.608V1.471H8.491ZM13.078 16.49H8.491C6.015 16.49 4.001 14.476 4.001 12C4.001 9.524 6.015 7.51 8.491 7.51H13.079V16.49H13.078ZM8.491 8.981C6.826 8.981 5.472 10.336 5.472 12C5.472 13.664 6.827 15.019 8.491 15.019H11.608V8.981H8.491ZM8.515 24C6.026 24 4 21.986 4 19.51C4 17.034 6.014 15.02 8.49 15.02H13.078V19.461C13.078 21.964 11.031 24 8.515 24ZM8.491 16.49C7.69064 16.4911 6.92336 16.8095 6.35741 17.3754C5.79147 17.9414 5.47306 18.7086 5.472 19.509C5.472 21.174 6.837 22.528 8.516 22.528C10.221 22.528 11.609 21.152 11.609 19.46V16.49H8.491ZM16.195 16.49H16.097C13.621 16.49 11.607 14.476 11.607 12C11.607 9.524 13.621 7.51 16.097 7.51H16.195C18.671 7.51 20.685 9.524 20.685 12C20.685 14.476 18.671 16.49 16.195 16.49ZM16.098 8.981C14.433 8.981 13.079 10.336 13.079 12C13.079 13.664 14.434 15.019 16.098 15.019H16.196C17.861 15.019 19.215 13.664 19.215 12C19.215 10.336 17.86 8.981 16.196 8.981H16.098Z" fill="#D44246"/>
</svg>
