<svg width="24" height="24" viewBox="0 0 24 24" fill="none" xmlns="http://www.w3.org/2000/svg">
<g clip-path="url(#clip0_542_169)">
<path d="M10.15 8.12C9.77462 7.97285 9.3729 7.90477 8.97 7.92C8.60655 7.91241 8.24293 7.91908 7.88 7.94V11.3L8.27 11.32H8.8C9.19 11.32 9.58 11.26 9.95 11.14C10.27 11.05 10.55 10.86 10.77 10.61C10.98 10.36 11.08 10.02 11.08 9.58C11.1026 9.26899 11.0243 8.95899 10.8568 8.696C10.6892 8.433 10.4414 8.23101 10.15 8.12ZM19.75 0H4.25C3.12283 0 2.04183 0.447767 1.2448 1.2448C0.447767 2.04183 0 3.12283 0 4.25L0 19.15C0 21.5 1.9 23.4 4.25 23.4H19.75C22.1 23.4 24 21.5 24 19.15V4.25C24 1.9 22.1 0 19.75 0ZM12.66 11.65C12.26 12.21 11.7 12.63 11.05 12.87C10.37 13.12 9.62 13.21 8.8 13.21L8.3 13.2L7.87 13.19V16.4C7.87284 16.4165 7.87217 16.4335 7.86805 16.4497C7.86393 16.466 7.85645 16.4812 7.84609 16.4944C7.83572 16.5076 7.8227 16.5185 7.80787 16.5263C7.79305 16.5342 7.77674 16.5388 7.76 16.54H5.82C5.74 16.54 5.7 16.5 5.7 16.41V6.12C5.7 6.05 5.73 6.01 5.8 6.01L6.36 6L7.12 5.98L7.99 5.96L8.9 5.95C9.72 5.95 10.4 6.05 10.96 6.26C11.46 6.43 11.92 6.71 12.3 7.08C12.62 7.4 12.87 7.79 13.03 8.22C13.18 8.64 13.26 9.07 13.26 9.52C13.26 10.38 13.06 11.09 12.66 11.65ZM19.48 8.5V10.45C19.48 10.53 19.43 10.56 19.32 10.56C18.6602 10.536 18.0036 10.6626 17.4 10.93C17.21 11.02 17.03 11.14 16.89 11.3V16.4C16.89 16.5 16.85 16.54 16.76 16.54H14.79C14.7716 16.5428 14.7528 16.5419 14.7347 16.5374C14.7167 16.5329 14.6997 16.5248 14.6848 16.5136C14.6699 16.5024 14.6574 16.4884 14.648 16.4723C14.6386 16.4563 14.6324 16.4385 14.63 16.42V10.84L14.62 10.09L14.6 9.31C14.6 9.08 14.58 8.86 14.56 8.63C14.5566 8.60632 14.5618 8.58221 14.5746 8.56202C14.5875 8.54184 14.6071 8.52693 14.63 8.52H16.41C16.51 8.52 16.59 8.59 16.61 8.68C16.7004 8.97816 16.7442 9.28847 16.74 9.6C17.04 9.25 17.41 8.96 17.82 8.74C18.2848 8.48179 18.8083 8.34749 19.34 8.35C19.41 8.34 19.47 8.39 19.48 8.46V8.5Z" fill="#D44246"/>
</g>
<defs>
<clipPath id="clip0_542_169">
<rect width="24" height="24" fill="white"/>
</clipPath>
</defs>
</svg>
