<svg width="24" height="24" viewBox="0 0 24 24" fill="none" xmlns="http://www.w3.org/2000/svg">
<g clip-path="url(#clip0_542_167)">
<path d="M8.54 10.43C8.44 10.12 8.35 9.82 8.25 9.51C8.15 9.2 8.06 8.91 7.98 8.62C7.9 8.34 7.83 8.08 7.76 7.84H7.74C7.65 8.27 7.54 8.7 7.4 9.13C7.25 9.61 7.1 10.11 6.94 10.61C6.81 11.12 6.65 11.59 6.5 12.01H9.04C8.98 11.8 8.9 11.55 8.81 11.29C8.72 11.02 8.63 10.73 8.54 10.43ZM17.12 10.14C16.57 10.11 16.05 10.4 15.79 10.9C15.67 11.13 15.6 11.37 15.57 11.62H17.679C17.939 11.62 18.129 11.62 18.249 11.61C18.329 11.6 18.409 11.58 18.479 11.53V11.43C18.4751 11.2559 18.4368 11.0842 18.3663 10.925C18.2958 10.7657 18.1944 10.622 18.0681 10.502C17.9418 10.3821 17.7929 10.2884 17.6302 10.2263C17.4675 10.1641 17.2941 10.1348 17.12 10.14ZM19.75 0H4.25C1.9 0 0 1.9 0 4.25V19.15C0 21.5 1.9 23.4 4.25 23.4H19.75C22.1 23.4 24 21.5 24 19.15V4.25C24 1.9 22.1 0 19.75 0ZM12.71 16.511H10.62C10.55 16.521 10.48 16.47 10.46 16.401L9.64 14.001H5.92L5.16 16.361C5.14 16.451 5.06 16.511 4.97 16.501H3.09C2.98 16.501 2.95 16.441 2.98 16.321L6.2 7.09C6.23 6.99 6.26 6.9 6.3 6.78C6.34 6.57 6.36 6.35 6.36 6.13C6.35 6.08 6.39 6.03 6.44 6.02H9.03C9.1 6.02 9.15 6.05 9.16 6.1L12.81 16.35C12.84 16.46 12.811 16.511 12.71 16.511ZM20.561 12.52C20.54 12.709 20.53 12.85 20.52 12.94C20.51 13.01 20.451 13.07 20.38 13.07C20.32 13.07 20.21 13.08 20.05 13.091C19.891 13.111 19.7 13.12 19.471 13.12C19.241 13.12 19 13.08 18.741 13.08H15.571C15.61 13.39 15.711 13.7 15.881 13.97C16.058 14.2391 16.312 14.4486 16.61 14.571C17.01 14.741 17.451 14.831 17.891 14.821C18.241 14.81 18.59 14.781 18.93 14.711C19.2355 14.672 19.5348 14.5947 19.821 14.481C19.871 14.442 19.901 14.461 19.901 14.561V16.092C19.901 16.131 19.891 16.172 19.88 16.211C19.862 16.2388 19.8385 16.2626 19.811 16.281C19.491 16.421 19.161 16.521 18.811 16.581C18.34 16.671 17.871 16.711 17.391 16.701C16.63 16.701 15.991 16.581 15.471 16.351C14.9818 16.138 14.5497 15.8125 14.21 15.401C13.891 15.011 13.66 14.571 13.52 14.091C13.3801 13.6167 13.3097 13.1245 13.311 12.63C13.311 12.091 13.391 11.56 13.561 11.04C13.721 10.54 13.971 10.08 14.311 9.67C14.641 9.27 15.05 8.95 15.52 8.72C15.991 8.49 16.55 8.41 17.19 8.41C17.7232 8.39756 18.2526 8.50343 18.74 8.72C19.15 8.9 19.51 9.17 19.79 9.52C20.05 9.86 20.26 10.24 20.391 10.66C20.52 11.06 20.58 11.47 20.58 11.88C20.58 12.12 20.57 12.33 20.561 12.52Z" fill="#D44246"/>
</g>
<defs>
<clipPath id="clip0_542_167">
<rect width="24" height="24" fill="white"/>
</clipPath>
</defs>
</svg>
